<?xml version="1.0" encoding="utf-8"?>
<!-- Generator: Adobe Illustrator 15.0.0, SVG Export Plug-In . SVG Version: 6.00 Build 0)  -->
<!DOCTYPE svg PUBLIC "-//W3C//DTD SVG 1.1//EN" "http://www.w3.org/Graphics/SVG/1.1/DTD/svg11.dtd" [
	<!ENTITY ns_extend "http://ns.adobe.com/Extensibility/1.0/">
	<!ENTITY ns_ai "http://ns.adobe.com/AdobeIllustrator/10.0/">
	<!ENTITY ns_graphs "http://ns.adobe.com/Graphs/1.0/">
	<!ENTITY ns_vars "http://ns.adobe.com/Variables/1.0/">
	<!ENTITY ns_imrep "http://ns.adobe.com/ImageReplacement/1.0/">
	<!ENTITY ns_sfw "http://ns.adobe.com/SaveForWeb/1.0/">
	<!ENTITY ns_custom "http://ns.adobe.com/GenericCustomNamespace/1.0/">
	<!ENTITY ns_adobe_xpath "http://ns.adobe.com/XPath/1.0/">
]>
<svg version="1.1" id="Layer_1" xmlns:x="&ns_extend;" xmlns:i="&ns_ai;" xmlns:graph="&ns_graphs;"
	 xmlns="http://www.w3.org/2000/svg" xmlns:xlink="http://www.w3.org/1999/xlink" x="0px" y="0px" width="352px" height="352px"
	 viewBox="0 0 352 352" enable-background="new 0 0 352 352" xml:space="preserve">
<metadata>
	<sfw  xmlns="&ns_sfw;">
		<slices></slices>
		<sliceSourceBounds  x="320.5" y="172.64" width="496.064" height="1136.86" bottomLeftOrigin="true"></sliceSourceBounds>
	</sfw>
</metadata>
<g>
	<circle id="path-1" fill="#FFFFFF" cx="176" cy="176" r="176"/>
</g>
<title>correct</title>
<desc>Created with Sketch.</desc>
<g id="Page-1">
	<g id="correct">
		<g id="Group-29">
			<g id="Mask">
				<circle id="path-1_1_" fill="#00CCCC" cx="176" cy="176" r="176"/>
			</g>
		</g>
		<text transform="matrix(1 0 0 1 195.2656 1133.8594)"><tspan x="0" y="0" font-family="'MyriadPro-Regular'" font-size="12">I</tspan><tspan x="2.868" y="0" font-family="'MyriadPro-Regular'" font-size="12">:</tspan><tspan x="5.352" y="0" font-family="'MyriadPro-Regular'" font-size="12">\</tspan><tspan x="9.443" y="0" font-family="'MyriadPro-Regular'" font-size="12">B</tspan><tspan x="15.947" y="0" font-family="'MyriadPro-Regular'" font-size="12">r</tspan><tspan x="19.871" y="0" font-family="'MyriadPro-Regular'" font-size="12">a</tspan><tspan x="25.655" y="0" font-family="'MyriadPro-Regular'" font-size="12">i</tspan><tspan x="28.463" y="0" font-family="'MyriadPro-Regular'" font-size="12">n</tspan><tspan x="35.123" y="0" font-family="'MyriadPro-Regular'" font-size="12">P</tspan><tspan x="41.508" y="0" font-family="'MyriadPro-Regular'" font-size="12">O</tspan><tspan x="49.775" y="0" font-family="'MyriadPro-Regular'" font-size="12">P</tspan><tspan x="56.159" y="0" font-family="'MyriadPro-Regular'" font-size="12">\</tspan><tspan x="60.251" y="0" font-family="'MyriadPro-Regular'" font-size="12">b</tspan><tspan x="67.078" y="0" font-family="'MyriadPro-Regular'" font-size="12">p</tspan><tspan x="73.906" y="0" font-family="'MyriadPro-Regular'" font-size="12">-</tspan><tspan x="77.59" y="0" font-family="'MyriadPro-Regular'" font-size="12">i</tspan><tspan x="80.398" y="0" font-family="'MyriadPro-Regular'" font-size="12">s</tspan><tspan x="85.15" y="0" font-family="'MyriadPro-Regular'" font-size="12">r</tspan><tspan x="89.074" y="0" font-family="'MyriadPro-Regular'" font-size="12">a</tspan><tspan x="94.858" y="0" font-family="'MyriadPro-Regular'" font-size="12">e</tspan><tspan x="100.87" y="0" font-family="'MyriadPro-Regular'" font-size="12">l</tspan><tspan x="103.702" y="0" font-family="'MyriadPro-Regular'" font-size="12">\</tspan><tspan x="107.794" y="0" font-family="'MyriadPro-Regular'" font-size="12">B</tspan><tspan x="114.298" y="0" font-family="'MyriadPro-Regular'" font-size="12">P</tspan><tspan x="120.682" y="0" font-family="'MyriadPro-Regular'" font-size="12">-</tspan><tspan x="124.365" y="0" font-family="'MyriadPro-Regular'" font-size="12">i</tspan><tspan x="127.174" y="0" font-family="'MyriadPro-Regular'" font-size="12">s</tspan><tspan x="131.926" y="0" font-family="'MyriadPro-Regular'" font-size="12">r</tspan><tspan x="135.85" y="0" font-family="'MyriadPro-Regular'" font-size="12">a</tspan><tspan x="141.633" y="0" font-family="'MyriadPro-Regular'" font-size="12">e</tspan><tspan x="147.646" y="0" font-family="'MyriadPro-Regular'" font-size="12">l</tspan><tspan x="150.478" y="0" font-family="'MyriadPro-Regular'" font-size="12">-</tspan><tspan x="154.161" y="0" font-family="'MyriadPro-Regular'" font-size="12">f</tspan><tspan x="160.438" y="0" font-family="'MyriadPro-Regular'" font-size="12">n</tspan><tspan x="167.098" y="0" font-family="'MyriadPro-Regular'" font-size="12">a</tspan><tspan x="172.881" y="0" font-family="'MyriadPro-Regular'" font-size="12">l</tspan><tspan x="175.713" y="0" font-family="'MyriadPro-Regular'" font-size="12">\</tspan><tspan x="179.805" y="0" font-family="'MyriadPro-Regular'" font-size="12">N</tspan><tspan x="187.701" y="0" font-family="'MyriadPro-Regular'" font-size="12">e</tspan><tspan x="193.713" y="0" font-family="'MyriadPro-Regular'" font-size="12">w</tspan><tspan x="202.545" y="0" font-family="'MyriadPro-Regular'" font-size="12">_</tspan><tspan x="208.545" y="0" font-family="'MyriadPro-Regular'" font-size="12">s</tspan><tspan x="213.297" y="0" font-family="'MyriadPro-Regular'" font-size="12">i</tspan><tspan x="216.104" y="0" font-family="'MyriadPro-Regular'" font-size="12">t</tspan><tspan x="220.076" y="0" font-family="'MyriadPro-Regular'" font-size="12">e</tspan><tspan x="226.088" y="0" font-family="'MyriadPro-Regular'" font-size="12">_</tspan><tspan x="232.088" y="0" font-family="'MyriadPro-Regular'" font-size="12">g</tspan><tspan x="238.796" y="0" font-family="'MyriadPro-Regular'" font-size="12">r</tspan><tspan x="242.72" y="0" font-family="'MyriadPro-Regular'" font-size="12">a</tspan><tspan x="248.504" y="0" font-family="'MyriadPro-Regular'" font-size="12">p</tspan><tspan x="255.332" y="0" font-family="'MyriadPro-Regular'" font-size="12">h</tspan><tspan x="261.992" y="0" font-family="'MyriadPro-Regular'" font-size="12">i</tspan><tspan x="264.8" y="0" font-family="'MyriadPro-Regular'" font-size="12">c</tspan><tspan x="270.176" y="0" font-family="'MyriadPro-Regular'" font-size="12">_</tspan><tspan x="276.176" y="0" font-family="'MyriadPro-Regular'" font-size="12">2</tspan><tspan x="282.332" y="0" font-family="'MyriadPro-Regular'" font-size="12">0</tspan><tspan x="288.487" y="0" font-family="'MyriadPro-Regular'" font-size="12">1</tspan><tspan x="294.643" y="0" font-family="'MyriadPro-Regular'" font-size="12">7</tspan></text>
		<g>
			<path d="M63.459,51.683v12.524l-1.27,7.764h-4.004l-1.27-7.764V51.683H63.459z M63.362,82.859v-6.348h-6.25v6.348H63.362z"/>
			<path d="M91.34,56.956v25.903h-6.201V61.717H69.905v-4.761H91.34z M70.1,68.895h6.152v13.965H70.1V68.895z"/>
			<path d="M99.421,78.099c2.197,0,2.368-0.537,2.368-3.467V61.717h-3.662v-4.761h9.717v19.189c0,4.59-2.148,6.714-6.348,6.714
				H95.54v-4.761H99.421z"/>
			<path d="M120.344,56.956v25.903h-6.299V56.956H120.344z"/>
			<path d="M134.626,56.956c7.056,0,10.254,3.345,10.254,10.4v5.151c0,7.007-3.442,10.352-10.254,10.352h-8.203v-4.761h7.202
				c3.442,0,5.054-1.587,5.054-6.738v-2.905c0-5.103-1.563-6.738-5.054-6.738h-7.3v-4.761H134.626z"/>
			<path d="M152.302,78.099c2.197,0,2.368-0.537,2.368-3.467V61.717h-3.662v-4.761h9.717v19.189c0,4.59-2.148,6.714-6.348,6.714
				h-5.957v-4.761H152.302z"/>
			<path d="M200.447,56.956v25.903h-6.201V61.717h-15.234v-4.761H200.447z M179.207,68.895h6.152v13.965h-6.152V68.895z"/>
			<path d="M226.545,82.859h-20.898l0.049-4.761h11.744V61.717h-11.646v-4.761h17.799v21.143h2.953V82.859z"/>
			<path d="M238.117,56.956v25.903h-6.299V56.956H238.117z"/>
			<path d="M273.615,56.956v12.5c0,8.96-4.467,13.403-12.621,13.403h-14.381l-2.416-25.903h5.883l2.197,21.143h6.422
				c5.297,0,9.154-0.83,9.154-7.495V56.956H273.615z M262.264,72.703h-5.811V56.956h5.811V72.703z"/>
			<path d="M294.953,56.956c7.031,0,8.594,4.614,8.594,11.206v14.697h-6.25V68.455c0-3.857-0.854-6.738-4.76-6.738h-4.004v21.143
				h-10.84v-4.761h5.248V61.717h-3.148v-4.761H294.953z"/>
		</g>
	</g>
</g>
</svg>
