<?xml version="1.0" encoding="UTF-8" standalone="no"?>
<svg width="131px" height="212px" viewBox="0 0 131 212" version="1.1" xmlns="http://www.w3.org/2000/svg" xmlns:xlink="http://www.w3.org/1999/xlink" xmlns:sketch="http://www.bohemiancoding.com/sketch/ns">
    <!-- Generator: Sketch 3.3.3 (12081) - http://www.bohemiancoding.com/sketch -->
    <title>Group + Group + Group Copy@2x</title>
    <desc>Created with Sketch.</desc>
    <defs></defs>
    <g id="Page-2" stroke="none" stroke-width="1" fill="none" fill-rule="evenodd" sketch:type="MSPage">
        <g id="Quiz-review-mode-feedback--Copy" sketch:type="MSArtboardGroup" transform="translate(-918.000000, -587.000000)">
            <g id="Group-29-+-CORRECT!-+-Group-+-Group-+-Group-Copy" sketch:type="MSLayerGroup" transform="translate(808.000000, 484.000000)">
                <g id="CORRECT!-+-Group-+-Group-+-Group-Copy" transform="translate(79.000000, 41.000000)" sketch:type="MSShapeGroup">
                    <g id="Group-+-Group-+-Group-Copy" transform="translate(30.000000, 60.000000)">
                        <g id="Group-+-Group">
                            <g id="Group" transform="translate(0.449180, 0.895082)">
                                <g transform="translate(0.560656, 0.003279)" id="MOBY_MOBY__PART_Head_Shell_Front_0_Layer0_0_FILL-link">
                                    <g>
                                        <g>
                                            <g id="MOBY_MOBY__PART_Head_Shell_Front_0_Layer0_0_FILL">
                                                <path d="M123.068852,71.0098361 L118.498361,70.2295082 C115.361663,24.6909324 98.1201332,1.72699795 66.7737705,1.33770492 C34.0928962,-0.0156762295 16.0710383,23.1340505 12.7081967,70.7868852 C12.6695867,71.3367145 12.6324283,71.8940915 12.5967213,72.4590164 L5.79672131,73.4622951 C-2.99760217e-15,96.4262295 -1.18907104,119.575956 2.2295082,142.911475 L9.80983607,144.806557 L9.80983607,145.029508 L9.58688525,145.029508 L12.1508197,186.27541 C12.6774249,189.842623 13.5692281,192.10929 14.8262295,193.07541 C16.0872951,194.115847 16.9419399,194.747541 17.3901639,194.970492 C56.1577698,220.164225 90.1577698,218.975154 119.390164,191.403279 L120.504918,189.842623 L121.17377,188.281967 L122.622951,146.367213 L129.534426,141.908197 C132.599129,115.80321 130.443938,92.1704235 123.068852,71.0098361 L123.068852,71.0098361 Z M70.3409836,5.57377049 C72.3928279,5.60947746 74.3622268,5.75811134 76.2491803,6.01967213 C99.1071551,9.51401981 111.815352,31.1402493 114.37377,70.8983607 C114.456796,71.6783982 114.60543,73.0904201 114.819672,75.1344262 L115.042623,77.252459 C117.115369,99.34375 118.267281,121.415881 118.498361,143.468852 L118.386885,143.580328 C118.97068,167.515027 118.524778,182.638525 117.04918,188.95082 C99.7812329,206.244604 80.9790471,213.37903 60.642623,210.354098 L60.642623,210.354098 C51.6282104,208.978945 42.3014344,205.597524 32.6622951,200.209836 C27.6650615,197.435724 22.5743511,194.091462 17.3901639,190.177049 L16.1639344,189.285246 L15.8295082,186.27541 C14.6714993,173.731233 13.9654884,161.17167 13.7114754,148.596721 C13.6545765,146.382018 13.617418,144.15251 13.6,141.908197 L13.4885246,141.908197 C13.49375,119.945219 14.2369194,97.9845628 15.7180328,76.0262295 L15.9409836,76.0262295 C18.9069843,28.0801913 35.5539788,4.48456284 65.8819672,5.23934426 C67.3503074,5.3145321 68.8366462,5.42600751 70.3409836,5.57377049 L70.3409836,5.57377049 Z M117.718033,81.8229508 L116.82623,74.1311475 L120.95082,74.4655738 C121.556677,76.5313525 122.114054,78.6122268 122.622951,80.7081967 C124.667247,89.040403 125.930635,97.8098019 126.413115,107.016393 C127.038422,117.287227 127.001264,127.951708 126.301639,139.009836 L120.95082,141.908197 L119.613115,108.465574 L117.718033,81.8229508 L117.718033,81.8229508 Z M6.01967213,86.9508197 C6.63714139,83.5551742 7.34315232,80.1365949 8.13770492,76.695082 L13.3770492,76.2491803 C13.1976434,79.3414617 12.9746926,82.3884563 12.7081967,85.3901639 C12.6356216,86.2694843 12.5613046,87.1241291 12.4852459,87.9540984 L11.3704918,108.465574 C11.0331626,118.875461 11.1817964,130.394587 11.8163934,143.022951 L11.704918,141.462295 L11.5934426,141.462295 L4.45901639,139.678689 C3.26471995,128.915215 3.00461066,118.139259 3.67868852,107.35082 C4.10339822,100.580721 4.88372609,93.7807206 6.01967213,86.9508197 L6.01967213,86.9508197 Z M78.0327869,81.4885246 C75.5542008,87.5825137 74.5880806,94.9770492 75.1344262,103.672131 C75.6781592,112.367213 77.5732411,119.798907 80.8196721,125.967213 C83.107821,130.036936 85.5231216,132.749505 88.0655738,134.104918 C88.213627,134.184751 88.3622609,134.259068 88.5114754,134.327869 L88.5114754,134.327869 C89.6973531,134.848087 90.8864242,135.108197 92.0786885,135.108197 C96.2529201,135.108197 99.5971824,132.061202 102.111475,125.967213 C104.624898,119.798907 105.591018,112.367213 105.009836,103.672131 C104.500939,94.9770492 102.605857,87.5825137 99.3245902,81.4885246 C97.7473873,78.5300717 96.0752561,76.2634051 94.3081967,74.6885246 C92.3588286,73.0535519 90.2779542,72.2360656 88.0655738,72.2360656 C84.010946,72.2360656 80.6666837,75.3202186 78.0327869,81.4885246 L78.0327869,81.4885246 Z M78.3672131,103.895082 C77.8379952,96.0070355 78.5068477,89.2813525 80.3737705,83.7180328 C82.3269126,78.1494877 84.890847,75.3626025 88.0655738,75.357377 C91.3799351,75.3626025 94.3526127,78.1494877 96.9836066,83.7180328 C99.6697575,89.2813525 101.267572,96.0070355 101.777049,103.895082 C102.359392,111.786612 101.69054,118.512295 99.7704918,124.072131 C97.9372439,129.64387 95.3733094,132.430755 92.0786885,132.432787 C88.9025102,132.430755 85.9298327,129.64387 83.1606557,124.072131 C80.5459187,118.512295 78.9481045,111.786612 78.3672131,103.895082 L78.3672131,103.895082 Z M30.9901639,82.6032787 C27.4606899,88.7715847 25.2311817,96.2032787 24.3016393,104.898361 C23.4423497,113.593443 24.1483607,120.987978 26.4196721,127.081967 C27.7448941,130.573412 29.3427083,133.063029 31.2131148,134.55082 C32.6721653,135.739891 34.2699795,136.334426 36.0065574,136.334426 C40.2283982,136.334426 44.0928791,133.250273 47.6,127.081967 C51.1628586,120.987978 53.3923668,113.593443 54.2885246,104.898361 C55.1811988,96.2032787 54.4751878,88.7715847 52.1704918,82.6032787 C51.3800034,80.3714481 50.4510417,78.5506831 49.3836066,77.1409836 C47.4922985,74.6885246 45.2256318,73.4622951 42.5836066,73.4622951 C38.479918,73.4622951 34.6154372,76.5092896 30.9901639,82.6032787 L30.9901639,82.6032787 Z M27.5344262,104.898361 C28.4416154,97.0068306 30.3366974,90.2439891 33.2196721,84.6098361 C36.1775444,79.1121243 39.2616974,76.3623975 42.4721311,76.3606557 C45.7510758,76.3623975 48.2035348,79.1121243 49.8295082,84.6098361 C51.4998975,90.2439891 51.8714822,97.0068306 50.9442623,104.898361 C50.1073258,112.786117 48.2494023,119.474641 45.3704918,124.963934 C42.4753245,130.606796 39.3911714,133.43084 36.1180328,133.436066 C32.9206626,133.43084 30.4682036,130.606796 28.7606557,124.963934 C27.105362,119.474641 26.6966189,112.786117 27.5344262,104.898361 L27.5344262,104.898361 Z" id="Shape" fill="#000000"></path>
                                                <path d="M11.3704918,108.465574 L3.67868852,107.35082 C3.00461066,118.139259 3.26471995,128.915215 4.45901639,139.678689 L11.5934426,141.462295 L11.704918,141.462295 L11.8163934,143.022951 C11.1817964,130.394587 11.0331626,118.875461 11.3704918,108.465574 L11.3704918,108.465574 Z M126.413115,107.016393 L119.613115,108.465574 L120.95082,141.908197 L126.301639,139.009836 C127.001264,127.951708 127.038422,117.287227 126.413115,107.016393 L126.413115,107.016393 Z" id="Shape" fill="#CC9900"></path>
                                                <path d="M12.4852459,87.9540984 C10.0658811,88.2586236 7.91068989,87.9241974 6.01967213,86.9508197 C4.88372609,93.7807206 4.10339822,100.580721 3.67868852,107.35082 L11.3704918,108.465574 L12.4852459,87.9540984 L12.4852459,87.9540984 Z M122.622951,80.7081967 C120.778091,81.1988046 119.143118,81.5703893 117.718033,81.8229508 L119.613115,108.465574 L126.413115,107.016393 C125.930635,97.8098019 124.667247,89.040403 122.622951,80.7081967 L122.622951,80.7081967 Z" id="Shape" fill="#FFCC00"></path>
                                                <path d="M8.13770492,76.695082 C7.34315232,80.1365949 6.63714139,83.5551742 6.01967213,86.9508197 C7.91068989,87.9241974 10.0658811,88.2586236 12.4852459,87.9540984 C12.5613046,87.1241291 12.6356216,86.2694843 12.7081967,85.3901639 C12.9746926,82.3884563 13.1976434,79.3414617 13.3770492,76.2491803 L8.13770492,76.695082 L8.13770492,76.695082 Z M116.82623,74.1311475 L117.718033,81.8229508 C119.143118,81.5703893 120.778091,81.1988046 122.622951,80.7081967 C122.114054,78.6122268 121.556677,76.5313525 120.95082,74.4655738 L116.82623,74.1311475 L116.82623,74.1311475 Z" id="Shape" fill="#FFFFCC"></path>
                                                <path d="M60.1967213,8.24918033 C62.4181011,7.00930669 64.3131831,6.00602801 65.8819672,5.23934426 C35.5539788,4.48456284 18.9069843,28.0801913 15.9409836,76.0262295 L15.7180328,76.0262295 C14.2369194,97.9845628 13.49375,119.945219 13.4885246,141.908197 L13.6,141.908197 C13.617418,144.15251 13.6545765,146.382018 13.7114754,148.596721 C16.2867316,136.526025 18.9992999,118.467008 21.8491803,94.4196721 C25.3832992,65.4073258 31.3286544,44.5242657 39.6852459,31.7704918 C48.1173156,19.0222336 54.954474,11.1817964 60.1967213,8.24918033 L60.1967213,8.24918033 Z" id="Shape" fill="#FF9900"></path>
                                                <path d="M80.3737705,83.7180328 C78.5068477,89.2813525 77.8379952,96.0070355 78.3672131,103.895082 C78.9481045,111.786612 80.5459187,118.512295 83.1606557,124.072131 C85.9298327,129.64387 88.9025102,132.430755 92.0786885,132.432787 C95.3733094,132.430755 97.9372439,129.64387 99.7704918,124.072131 C101.69054,118.512295 102.359392,111.786612 101.777049,103.895082 C101.267572,96.0070355 99.6697575,89.2813525 96.9836066,83.7180328 C94.3526127,78.1494877 91.3799351,75.3626025 88.0655738,75.357377 C84.890847,75.3626025 82.3269126,78.1494877 80.3737705,83.7180328 L80.3737705,83.7180328 Z M33.2196721,84.6098361 C30.3366974,90.2439891 28.4416154,97.0068306 27.5344262,104.898361 C26.6966189,112.786117 27.105362,119.474641 28.7606557,124.963934 C30.4682036,130.606796 32.9206626,133.43084 36.1180328,133.436066 C39.3911714,133.43084 42.4753245,130.606796 45.3704918,124.963934 C48.2494023,119.474641 50.1073258,112.786117 50.9442623,104.898361 C51.8714822,97.0068306 51.4998975,90.2439891 49.8295082,84.6098361 C48.2035348,79.1121243 45.7510758,76.3623975 42.4721311,76.3606557 C39.2616974,76.3623975 36.1775444,79.1121243 33.2196721,84.6098361 L33.2196721,84.6098361 Z" id="Shape" fill="#FFFFFF"></path>
                                                <path d="M98.8786885,77.1409836 C97.6373634,76.1533811 96.6712432,75.5216872 95.9803279,75.2459016 C95.4273053,75.0673668 94.8699283,74.8815745 94.3081967,74.6885246 C96.0752561,76.2634051 97.7473873,78.5300717 99.3245902,81.4885246 C102.605857,87.5825137 104.500939,94.9770492 105.009836,103.672131 C105.591018,112.367213 104.624898,119.798907 102.111475,125.967213 C99.5971824,132.061202 96.2529201,135.108197 92.0786885,135.108197 C90.8864242,135.108197 89.6973531,134.848087 88.5114754,134.327869 L88.5114754,134.327869 C95.1962261,137.786219 100.138303,136.671465 103.337705,130.983607 C102.778586,137.246551 102.035417,143.452015 101.108197,149.6 C99.7463969,159.228398 97.8513149,167.551895 95.4229508,174.570492 L95.6459016,173.901639 L94.8655738,176.354098 C90.1583504,188.623651 84.5474214,197.39305 78.0327869,202.662295 C71.5132172,208.002664 65.7164959,210.566598 60.642623,210.354098 C80.9790471,213.37903 99.7812329,206.244604 117.04918,188.95082 C118.524778,182.638525 118.97068,167.515027 118.386885,143.580328 L118.498361,143.468852 C118.267281,121.415881 117.115369,99.34375 115.042623,77.252459 L114.819672,75.1344262 C114.60543,73.0904201 114.456796,71.6783982 114.37377,70.8983607 C111.815352,31.1402493 99.1071551,9.51401981 76.2491803,6.01967213 C92.7228654,18.8248292 101.938166,38.890403 103.895082,66.2163934 C104.436492,73.790625 104.770919,81.2966359 104.898361,88.7344262 C103.604201,85.0110314 102.600922,82.3727801 101.888525,80.8196721 C101.18832,79.3469775 100.185041,78.120748 98.8786885,77.1409836 L98.8786885,77.1409836 Z M51.1672131,78.1442623 C50.5726776,77.7726776 49.9781421,77.4382514 49.3836066,77.1409836 C50.4510417,78.5506831 51.3800034,80.3714481 52.1704918,82.6032787 C54.4751878,88.7715847 55.1811988,96.2032787 54.2885246,104.898361 C53.3923668,113.593443 51.1628586,120.987978 47.6,127.081967 C44.0928791,133.250273 40.2283982,136.334426 36.0065574,136.334426 C34.2699795,136.334426 32.6721653,135.739891 31.2131148,134.55082 L31.1016393,134.77377 C39.9305499,141.772626 47.139293,137.79667 52.7278689,122.845902 C58.3939549,107.898907 58.877015,94.1874317 54.1770492,81.7114754 C53.8054645,80.7453552 53.3595628,80.0021858 52.8393443,79.4819672 C52.3191257,78.9617486 51.7617486,78.515847 51.1672131,78.1442623 L51.1672131,78.1442623 Z" id="Shape" fill="#993300"></path>
                                                <path d="M76.2491803,6.01967213 C74.3622268,5.75811134 72.3928279,5.60947746 70.3409836,5.57377049 C68.8366462,5.42600751 67.3503074,5.3145321 65.8819672,5.23934426 C64.3131831,6.00602801 62.4181011,7.00930669 60.1967213,8.24918033 C54.954474,11.1817964 48.1173156,19.0222336 39.6852459,31.7704918 C31.3286544,44.5242657 25.3832992,65.4073258 21.8491803,94.4196721 C18.9992999,118.467008 16.2867316,136.526025 13.7114754,148.596721 C13.9654884,161.17167 14.6714993,173.731233 15.8295082,186.27541 L16.1639344,189.285246 L17.3901639,190.177049 C22.5743511,194.091462 27.6650615,197.435724 32.6622951,200.209836 C42.3014344,205.597524 51.6282104,208.978945 60.642623,210.354098 L60.642623,210.354098 C65.7164959,210.566598 71.5132172,208.002664 78.0327869,202.662295 C84.5474214,197.39305 90.1583504,188.623651 94.8655738,176.354098 L95.6459016,173.901639 L95.4229508,174.570492 C97.8513149,167.551895 99.7463969,159.228398 101.108197,149.6 C102.035417,143.452015 102.778586,137.246551 103.337705,130.983607 C100.138303,136.671465 95.1962261,137.786219 88.5114754,134.327869 C88.3622609,134.259068 88.213627,134.184751 88.0655738,134.104918 C85.5231216,132.749505 83.107821,130.036936 80.8196721,125.967213 C77.5732411,119.798907 75.6781592,112.367213 75.1344262,103.672131 C74.5880806,94.9770492 75.5542008,87.5825137 78.0327869,81.4885246 C80.6666837,75.3202186 84.010946,72.2360656 88.0655738,72.2360656 C90.2779542,72.2360656 92.3588286,73.0535519 94.3081967,74.6885246 C94.8699283,74.8815745 95.4273053,75.0673668 95.9803279,75.2459016 C96.6712432,75.5216872 97.6373634,76.1533811 98.8786885,77.1409836 C100.185041,78.120748 101.18832,79.3469775 101.888525,80.8196721 C102.600922,82.3727801 103.604201,85.0110314 104.898361,88.7344262 C104.770919,81.2966359 104.436492,73.790625 103.895082,66.2163934 C101.938166,38.890403 92.7228654,18.8248292 76.2491803,6.01967213 L76.2491803,6.01967213 Z M49.3836066,77.1409836 C49.9781421,77.4382514 50.5726776,77.7726776 51.1672131,78.1442623 C51.7617486,78.515847 52.3191257,78.9617486 52.8393443,79.4819672 C53.3595628,80.0021858 53.8054645,80.7453552 54.1770492,81.7114754 C58.877015,94.1874317 58.3939549,107.898907 52.7278689,122.845902 C47.139293,137.79667 39.9305499,141.772626 31.1016393,134.77377 L31.2131148,134.55082 C29.3427083,133.063029 27.7448941,130.573412 26.4196721,127.081967 C24.1483607,120.987978 23.4423497,113.593443 24.3016393,104.898361 C25.2311817,96.2032787 27.4606899,88.7715847 30.9901639,82.6032787 C34.6154372,76.5092896 38.479918,73.4622951 42.5836066,73.4622951 C45.2256318,73.4622951 47.4922985,74.6885246 49.3836066,77.1409836 L49.3836066,77.1409836 Z" id="Shape" fill="#CC6600"></path>
                                            </g>
                                        </g>
                                    </g>
                                </g>
                            </g>
                            <g id="Group" transform="translate(65.331148, 106.465574) scale(-1, 1) translate(-65.331148, -106.465574) translate(34.028187, 98.118118)" fill="#000000">
                                <g transform="translate(0.521716, 0.521716)" id="MOBY_Eye_0_Layer0_0_FILL-link">
                                    <g transform="translate(51.649885, 1.669491)">
                                        <g>
                                            <g>
                                                <g id="MOBY_Eye_0_Layer0_0_FILL">
                                                    <path d="M7.82574013,6.1562489 C7.82383804,4.74408322 7.4412463,3.52674587 6.67796491,2.50423684 C5.97718075,1.53716014 5.10765407,1.05022519 4.06938487,1.04343202 C3.11806833,1.05022519 2.28332272,1.53716014 1.56514803,2.50423684 C0.836375976,3.52674587 0.453784236,4.74408322 0.417372807,6.1562489 C0.453784236,7.65509552 0.836375976,8.90721394 1.56514803,9.91260416 C2.28332272,10.8967997 3.11806833,11.3837346 4.06938487,11.373409 C5.10765407,11.3837346 5.97718075,10.8967997 6.67796491,9.91260416 C7.4412463,8.90721394 7.82383804,7.65509552 7.82574013,6.1562489 L7.82574013,6.1562489 Z" id="Shape"></path>
                                                </g>
                                            </g>
                                        </g>
                                    </g>
                                    <g transform="translate(1.565148, 1.669491)">
                                        <g>
                                            <g>
                                                <g id="MOBY_Eye_0_Layer0_0_FILL">
                                                    <path d="M7.82574013,6.1562489 C7.82383804,4.74408322 7.4412463,3.52674587 6.67796491,2.50423684 C5.97718075,1.53716014 5.10765407,1.05022519 4.06938487,1.04343202 C3.11806833,1.05022519 2.28332272,1.53716014 1.56514803,2.50423684 C0.836375976,3.52674587 0.453784236,4.74408322 0.417372807,6.1562489 C0.453784236,7.65509552 0.836375976,8.90721394 1.56514803,9.91260416 C2.28332272,10.8967997 3.11806833,11.3837346 4.06938487,11.373409 C5.10765407,11.3837346 5.97718075,10.8967997 6.67796491,9.91260416 C7.4412463,8.90721394 7.82383804,7.65509552 7.82574013,6.1562489 L7.82574013,6.1562489 Z" id="Shape"></path>
                                                </g>
                                            </g>
                                        </g>
                                    </g>
                                </g>
                            </g>
                        </g>
                        <g id="Group-Copy" transform="translate(20.000000, 160.000000)" fill="#000000">
                            <g id="Group" transform="translate(47.496970, 10.080000) rotate(-0.172038) translate(-47.496970, -10.080000) translate(0.531661, 1.453152)">
                                <g id="MOBY__PART_Mouth_Front_0_Layer0_0_FILL-link">
                                    <g>
                                        <g id="MOBY__PART_Mouth_Front_0_Layer0_0_FILL">
                                            <path d="M22.6658664,14.6656418 C31.7191317,16.0076896 39.5126503,16.6547032 46.0464224,16.6066826 L46.0464224,12.8324366 L22.6658664,10.7835602 L22.6658664,14.6656418 L22.6658664,14.6656418 Z M1.42937897,2.80372564 L1.22518197,6.7936429 C2.57772118,7.74815647 4.55162547,8.93434808 7.14689483,10.3522178 C9.81022985,11.7700874 13.2815788,12.956279 17.5609416,13.9107926 L17.4588431,9.81303974 L1.42937897,2.80372564 L1.42937897,2.80372564 Z M51.2534457,16.498847 C52.4116256,16.5797237 58.1631743,16.1124361 68.5080918,15.0969842 L75.2465927,13.9107926 L75.2465927,9.81303974 L51.2534457,12.6167654 L51.2534457,16.498847 L51.2534457,16.498847 Z M91.8886478,1.07835602 L79.7389266,8.08767012 L79.7389266,11.5384094 L79.6368281,12.5089298 C84.2586462,11.1345875 88.580816,9.01382068 92.6033372,6.14662929 L92.5012387,0.970520414 L91.8886478,1.07835602 L91.8886478,1.07835602 Z" id="Shape"></path>
                                        </g>
                                    </g>
                                </g>
                            </g>
                        </g>
                    </g>
                </g>
            </g>
        </g>
    </g>
</svg>