<?xml version="1.0" encoding="UTF-8" standalone="no"?>
<svg width="80px" height="80px" viewBox="0 0 80 80" version="1.1" xmlns="http://www.w3.org/2000/svg" xmlns:xlink="http://www.w3.org/1999/xlink">
    <!-- Generator: Sketch 39.1 (31720) - http://www.bohemiancoding.com/sketch -->
    <title>Slice 10</title>
    <desc>Created with Sketch.</desc>
    <defs></defs>
    <g id="Page-1" stroke="none" stroke-width="1" fill="none" fill-rule="evenodd">
        <path d="M76.7932891,14.0051613 C75.0702356,12.276345 72.9878023,11.4119369 70.5459893,11.4119369 C68.0943303,11.4119369 66.0020511,12.276345 64.2691515,14.0051613 C62.546098,15.7438564 61.6845713,17.8431333 61.6845713,20.3029918 C61.6845713,22.436845 62.3393316,24.2990271 63.6488523,25.889538 L54.3295943,39.7447653 C53.4040684,39.4187599 52.4145433,39.2557572 51.3610192,39.2557572 C49.1062806,39.2557572 47.1567686,39.991739 45.5124833,41.4637026 L36.9907529,34.7805929 C37.3058255,33.8717295 37.4633618,32.898653 37.4633618,31.8613632 C37.4633618,29.4015047 36.5919891,27.3022278 34.8492435,25.5635327 C33.12619,23.8347164 31.0437567,22.9703083 28.6019438,22.9703083 C26.1502848,22.9703083 24.0580055,23.8347164 22.325106,25.5635327 C20.6020524,27.3022278 19.7405257,29.4015047 19.7405257,31.8613632 C19.7405257,33.9853375 20.390363,35.84258 21.6900377,37.433091 L12.3707797,51.3031367 C11.4550998,50.9771313 10.4704978,50.8141286 9.41697363,50.8141286 C6.96531463,50.8141286 4.87303536,51.6785368 3.14013583,53.407353 C1.41708231,55.1460482 0.555555556,57.245325 0.555555556,59.7051836 C0.555555556,62.1551632 1.41708231,64.2445611 3.14013583,65.9733773 C4.87303536,67.7219514 6.96531463,68.5962385 9.41697363,68.5962385 C11.8587866,68.5962385 13.9412199,67.7219514 15.6642734,65.9733773 C17.4070189,64.2445611 18.2783917,62.1551632 18.2783917,59.7051836 C18.2783917,57.6799988 17.6925535,55.9017879 16.5208771,54.3705506 L25.9287493,40.3671391 C26.765661,40.6239918 27.6567258,40.7524182 28.6019438,40.7524182 C30.6203779,40.7524182 32.3975845,40.1547417 33.9335636,38.9593887 L42.7654437,45.8795932 C42.5882153,46.6007565 42.4996011,47.3564962 42.4996011,48.1468122 C42.4996011,50.5967917 43.3611279,52.6861897 45.0841814,54.4150059 C46.8170809,56.16358 48.9093602,57.0378671 51.3610192,57.0378671 C53.8028322,57.0378671 55.8852654,56.16358 57.6083189,54.4150059 C59.3510645,52.6861897 60.2224373,50.5967917 60.2224373,48.1468122 C60.2224373,46.1315064 59.6365991,44.3582349 58.4649227,42.8269976 L67.8875639,28.8087677 C68.7244756,29.0656204 69.6106174,29.1940468 70.5459893,29.1940468 C72.9878023,29.1940468 75.0702356,28.3197597 76.7932891,26.5711855 C78.5360346,24.8423693 79.4074074,22.7529714 79.4074074,20.3029918 C79.4074074,17.8431333 78.5360346,15.7438564 76.7932891,14.0051613 L76.7932891,14.0051613 Z" id="Timeline" fill="#FFFFFF"></path>
    </g>
</svg>