<?xml version="1.0" encoding="UTF-8" standalone="no"?>
<svg width="80px" height="80px" viewBox="0 0 80 80" version="1.1" xmlns="http://www.w3.org/2000/svg" xmlns:xlink="http://www.w3.org/1999/xlink">
    <!-- Generator: Sketch 39.1 (31720) - http://www.bohemiancoding.com/sketch -->
    <title>Slice 10</title>
    <desc>Created with Sketch.</desc>
    <defs></defs>
    <g id="Page-1" stroke="none" stroke-width="1" fill="none" fill-rule="evenodd">
        <path d="M67.2340426,14.8085106 C67.2340426,12.9292024 66.5730994,11.3286052 65.2512131,10.0067189 C63.9134005,8.66890631 62.3048401,8 60.4255319,8 L19.5744681,8 C17.6792335,8 16.0706731,8.67686948 14.7487869,10.0306084 L14.7487869,10.0067189 C13.4269006,11.3286052 12.7659574,12.9292024 12.7659574,14.8085106 L12.7659574,65.1914894 C12.7659574,67.0548712 13.4269006,68.6634316 14.7487869,70.0171706 C16.0706731,71.3390569 17.6792335,72 19.5744681,72 L60.4255319,72 C62.2889138,72 63.8974742,71.3390569 65.2512131,70.0171706 C66.5730994,68.6634316 67.2340426,67.0548712 67.2340426,65.1914894 L67.2340426,14.8085106 L67.2340426,14.8085106 Z M23.3967898,20.6375513 L23.3967898,18.4874953 L57.3198955,18.4874953 L57.3198955,20.6375513 L23.3967898,20.6375513 L23.3967898,20.6375513 Z M23.3967898,31.6267264 L23.3967898,29.4766704 L57.3198955,29.4766704 L57.3198955,31.6267264 L23.3967898,31.6267264 L23.3967898,31.6267264 Z M54.0470325,48.9705114 L57.0571109,50.356103 L55.4804031,53.7484136 L51.3952968,60.7719298 L49.818589,60.0552445 L52.4703247,52.3628219 L54.0470325,48.9705114 L54.0470325,48.9705114 Z M57.3198955,39.8686077 L57.3198955,42.0186637 L23.3967898,42.0186637 L23.3967898,39.8686077 L57.3198955,39.8686077 L57.3198955,39.8686077 Z M46.0201568,51.8611422 C46.0201568,52.5300485 45.8290407,53.1671022 45.4468085,53.7723031 C45.0645763,54.377504 44.2443698,55.1977106 42.9861889,56.2329227 C42.3491352,56.7744183 41.9509767,57.2044295 41.7917133,57.5229563 C41.6324499,57.8574095 41.5607814,58.4466841 41.5767077,59.2907801 L38.8055244,59.2907801 L38.8055244,58.5502053 C38.8055244,57.6583302 38.9488615,56.9177554 39.2355356,56.3284808 C39.5381361,55.7551325 40.1353739,55.1021525 41.027249,54.3695409 C41.9191241,53.6528555 42.4526565,53.1830285 42.6278462,52.9600597 C42.898594,52.5937539 43.0339679,52.1955954 43.0339679,51.7655842 C43.0339679,51.1763096 42.7950728,50.6746298 42.3172826,50.260545 C41.8394923,49.8305338 41.1944756,49.6155282 40.3822322,49.6155282 C39.6177678,49.6155282 38.972751,49.838497 38.4471818,50.2844345 C37.9216125,50.7144457 37.5632699,51.383352 37.3721538,52.2911534 L34.5531915,51.9567003 C34.6328232,50.6507403 35.1902451,49.5438596 36.2254573,48.6360582 C37.2447431,47.7282568 38.5905189,47.2743561 40.2627846,47.2743561 C42.0146821,47.2743561 43.4082369,47.73622 44.443449,48.6599477 C45.4945875,49.5836755 46.0201568,50.6507403 46.0201568,51.8611422 L46.0201568,51.8611422 Z M48.7674505,60.7480403 L51.5386338,62.0380739 L50.2724897,64.8092572 L47.5013065,63.5192236 L48.7674505,60.7480403 L48.7674505,60.7480403 Z M24.710713,50.2844345 L27.7446809,48.9705114 L29.201941,52.410601 L31.6864502,60.174692 L30.1097424,60.8674879 L26.1679731,53.7245241 L24.710713,50.2844345 L24.710713,50.2844345 Z M29.9186264,62.0858529 L32.7375887,60.8674879 L33.9320642,63.6864502 L31.1131019,64.9048152 L29.9186264,62.0858529 L29.9186264,62.0858529 Z M38.8055244,60.3419186 L41.8633819,60.3419186 L41.8633819,63.399776 L38.8055244,63.399776 L38.8055244,60.3419186 L38.8055244,60.3419186 Z" id="Shape" fill="#FFFFFF"></path>
    </g>
</svg>