<?xml version="1.0" encoding="UTF-8" standalone="no"?>
<svg width="160px" height="160px" viewBox="0 0 160 160" version="1.1" xmlns="http://www.w3.org/2000/svg" xmlns:xlink="http://www.w3.org/1999/xlink" xmlns:sketch="http://www.bohemiancoding.com/sketch/ns">
    <!-- Generator: Sketch 3.4 (15575) - http://www.bohemiancoding.com/sketch -->
    <title>Slice 14</title>
    <desc>Created with Sketch.</desc>
    <defs></defs>
    <g id="Page-1" stroke="none" stroke-width="1" fill="none" fill-rule="evenodd" sketch:type="MSPage">
        <g id="SOCIAL-STUDIES" sketch:type="MSLayerGroup" transform="translate(-931.000000, -590.000000)" fill="#FFFFFF">
            <g id="World-History-White" transform="translate(947.447368, 600.000000)" sketch:type="MSShapeGroup">
                <g id="Group" transform="translate(0.828947, 0.414474)">
                    <g id="Symbol_39_0_Layer0_0_FILL-link">
                        <g id="Symbol_39_0_Layer0_0_FILL">
                            <path d="M117.296053,103.480263 C121.563596,99.5197368 124.188596,94.6688596 125.171053,88.9276316 C125.263158,88.252193 125.309211,87.622807 125.309211,87.0394737 C125.401316,85.1052632 125.063596,83.2631579 124.296053,81.5131579 L64.6118421,108.914474 C66.2390351,111.708333 67.3442982,114.717105 67.9276316,117.940789 C68.8179825,123.559211 68.0504386,128.947368 65.625,134.105263 C69.125,132.938596 72.2719298,131.633772 75.0657895,130.190789 C79.9166667,127.550439 84.6754386,125.017544 89.3421053,122.592105 C94.6842105,119.982456 99.6885965,117.065789 104.355263,113.842105 C108.899123,110.649123 113.212719,107.195175 117.296053,103.480263 L117.296053,103.480263 Z M4.74342105,25.375 C3.57675439,25.4671053 2.60964912,25.7587719 1.84210526,26.25 C0.98245614,28.8903509 0.445175439,31.6688596 0.230263158,34.5855263 C0.138157895,36.5197368 0.291666667,38.3618421 0.690789474,40.1118421 C1.45833333,43.8881579 3.3004386,46.6973684 6.21710526,48.5394737 L25.2828947,41.8618421 C24.5153509,39.9276316 23.502193,38.0855263 22.2434211,36.3355263 C21.752193,35.629386 21.2609649,34.9846491 20.7697368,34.4013158 C18.8355263,32.0679825 16.747807,30.0416667 14.5065789,28.3223684 C11.5899123,26.1732456 8.33552632,25.1907895 4.74342105,25.375 L4.74342105,25.375 Z M7.36842105,22.1973684 C10.9605263,21.9824561 14.2149123,22.9495614 17.1315789,25.0986842 C20.0482456,27.3399123 22.627193,30.0109649 24.8684211,33.1118421 C26.495614,35.4451754 27.754386,37.9780702 28.6447368,40.7105263 C29.7192982,45.254386 30.1951754,49.5679825 30.0723684,53.6513158 C29.8881579,61.3267544 29.5504386,69.002193 29.0592105,76.6776316 C28.5679825,85.8267544 28.8596491,94.8684211 29.9342105,103.802632 C31.1008772,113.22807 33.7719298,122.070175 37.9473684,130.328947 C39.6973684,133.70614 42.3684211,136.039474 45.9605263,137.328947 C50.3201754,138.95614 53.9583333,139.094298 56.875,137.743421 C59.7916667,136.300439 61.6337719,134.258772 62.4013158,131.618421 C63.1995614,128.916667 63.7368421,125.47807 64.0131579,121.302632 C64.1973684,117.096491 62.4934211,112.429825 58.9013158,107.302632 L107.118421,85.1513158 C104.877193,82.3267544 102.743421,79.502193 100.717105,76.6776316 C97.6162281,72.5942982 95.4824561,68.0811404 94.3157895,63.1381579 C92.0745614,53.8969298 91.2916667,44.5175439 91.9671053,35 C92.5504386,26.6491228 92.2127193,18.4364035 90.9539474,10.3618421 C90.370614,7.07675439 88.8201754,4.60526316 86.3026316,2.94736842 C85.0438596,2.17982456 83.7850877,1.64254386 82.5263158,1.33552632 C78.9342105,0.353070175 75.5263158,0.260964912 72.3026316,1.05921053 C50.4736842,7.35307018 28.8289474,14.3377193 7.36842105,22.0131579 L7.36842105,22.1973684 L7.36842105,22.1973684 Z M36.0592105,24.0394737 C36.1513158,23.7631579 36.3508772,23.5635965 36.6578947,23.4407895 C36.9342105,23.2565789 37.2258772,23.1644737 37.5328947,23.1644737 C37.8092105,23.1644737 38.0394737,23.2565789 38.2236842,23.4407895 C38.8070175,23.8399123 39.252193,24.5307018 39.5592105,25.5131579 C40.2346491,25.2982456 40.9100877,24.9605263 41.5855263,24.5 C41.7697368,24.2850877 42.0153509,24.1776316 42.3223684,24.1776316 C44.6557018,24.0855263 46.5899123,23.2105263 48.125,21.5526316 C48.3399123,21.3684211 48.5855263,21.2763158 48.8618421,21.2763158 C49.1688596,21.1842105 49.4605263,21.1842105 49.7368421,21.2763158 C49.9210526,21.3684211 50.120614,21.5065789 50.3355263,21.6907895 C50.6118421,22.0899123 51.0416667,22.2894737 51.625,22.2894737 C52.4232456,22.1973684 53.4517544,21.7675439 54.7105263,21 C55.754386,20.2017544 57.0592105,18.9890351 58.625,17.3618421 C58.7171053,17.1469298 58.8552632,16.9934211 59.0394737,16.9013158 C59.254386,16.8092105 59.5,16.7631579 59.7763158,16.7631579 C61.7412281,16.8552632 63.4912281,16.4100877 65.0263158,15.4276316 C65.2105263,15.2434211 65.502193,15.1513158 65.9013158,15.1513158 C66.2083333,15.1513158 66.4539474,15.2434211 66.6381579,15.4276316 C66.7302632,15.5504386 66.8223684,15.6578947 66.9144737,15.75 C67.129386,15.4429825 67.375,15.2894737 67.6513158,15.2894737 C70.752193,14.9210526 73.2697368,14.2916667 75.2039474,13.4013158 C75.5109649,13.2171053 75.9100877,13.2171053 76.4013158,13.4013158 C76.6776316,13.4934211 76.9232456,13.7390351 77.1381579,14.1381579 C77.3223684,14.4144737 77.3684211,14.7982456 77.2763158,15.2894737 C77.0614035,15.5964912 76.8157895,15.8421053 76.5394737,16.0263158 C74.3903509,17.0087719 71.7192982,17.745614 68.5263158,18.2368421 C68.0350877,18.5131579 67.497807,18.6513158 66.9144737,18.6513158 C66.5460526,18.6513158 66.1622807,18.5592105 65.7631579,18.375 C64.1052632,19.2346491 62.3092105,19.6644737 60.375,19.6644737 C58.7171053,21.4144737 57.3508772,22.6732456 56.2763158,23.4407895 C54.5263158,24.5153509 53.0219298,25.0986842 51.7631579,25.1907895 C50.8114035,25.1907895 49.997807,25.0065789 49.3223684,24.6381579 C47.3574561,26.0811404 45.1622807,26.9100877 42.7368421,27.125 C41.3859649,27.9846491 40.0350877,28.5065789 38.6842105,28.6907895 C38.1929825,28.8135965 37.8092105,28.7214912 37.5328947,28.4144737 C37.2258772,28.2302632 37.0263158,27.9385965 36.9342105,27.5394737 C36.4429825,27.9385965 35.8596491,28.2763158 35.1842105,28.5526316 C34.7850877,28.7675439 34.4473684,28.8135965 34.1710526,28.6907895 C33.7719298,28.5065789 33.4802632,28.2149123 33.2960526,27.8157895 C33.1118421,27.4473684 33.1118421,27.1096491 33.2960526,26.8026316 C33.3881579,26.4342105 33.6337719,26.1425439 34.0328947,25.9276316 C34.9846491,25.4364035 35.6600877,24.8070175 36.0592105,24.0394737 L36.0592105,24.0394737 Z M35.9210526,51.7631579 C35.9210526,51.2719298 36.0592105,50.9342105 36.3355263,50.75 C38.4846491,48.3245614 41.1096491,46.5285088 44.2105263,45.3618421 C44.3947368,45.1469298 44.6403509,45.1008772 44.9473684,45.2236842 C45.2236842,45.3157895 45.4692982,45.4539474 45.6842105,45.6381579 C45.8684211,45.8223684 46.0065789,46.0679825 46.0986842,46.375 C46.1907895,46.9583333 46.3442982,47.2960526 46.5592105,47.3881579 C47.2346491,47.2960526 48.2017544,46.620614 49.4605263,45.3618421 L49.5986842,45.3618421 C50.6732456,44.2872807 51.8399123,43.504386 53.0986842,43.0131579 C53.375,42.9210526 53.7127193,42.9210526 54.1118421,43.0131579 C54.4188596,43.0131579 54.6644737,43.1666667 54.8486842,43.4736842 C55.0328947,43.75 55.125,44.0416667 55.125,44.3486842 L55.125,45.2236842 C56.7828947,43.9342105 58.4407895,42.4298246 60.0986842,40.7105263 C60.2828947,40.4035088 60.5745614,40.25 60.9736842,40.25 C61.3421053,40.25 61.6798246,40.3421053 61.9868421,40.5263158 C62.4780702,40.7412281 62.8618421,41.370614 63.1381579,42.4144737 C64.2127193,41.6469298 65.379386,40.6337719 66.6381579,39.375 C66.9144737,39.0986842 67.252193,38.9605263 67.6513158,38.9605263 C67.9583333,38.9605263 68.2960526,39.0986842 68.6644737,39.375 C68.879386,39.5592105 69.0328947,39.8508772 69.125,40.25 C69.125,40.3421053 69.1710526,40.4342105 69.2631579,40.5263158 C69.9385965,40.25 70.5219298,39.8662281 71.0131579,39.375 L71.1513158,39.375 C71.7346491,38.7916667 72.2719298,38.1162281 72.7631579,37.3486842 C72.8552632,37.0416667 73.0394737,36.8421053 73.3157895,36.75 C73.622807,36.6578947 73.9758772,36.6578947 74.375,36.75 C74.6513158,36.75 74.8815789,36.9035088 75.0657895,37.2105263 L75.25,37.3486842 C76.9692982,36.2741228 78.8574561,35.6447368 80.9144737,35.4605263 L81.0526316,35.4605263 C81.5438596,35.4605263 81.9736842,35.3070175 82.3421053,35 C82.6491228,34.7236842 83.0482456,34.6315789 83.5394737,34.7236842 C83.9078947,34.8157895 84.1995614,35 84.4144737,35.2763158 C84.6907895,35.5833333 84.7828947,35.9824561 84.6907895,36.4736842 C84.5986842,36.8421053 84.3991228,37.1337719 84.0921053,37.3486842 C83.2324561,38.0241228 82.2653509,38.3618421 81.1907895,38.3618421 C78.9495614,38.6381579 76.8157895,39.5131579 74.7894737,40.9868421 C74.5131579,41.1710526 74.1754386,41.2631579 73.7763158,41.2631579 C73.5921053,41.2631579 73.4385965,41.2171053 73.3157895,41.125 C73.2236842,41.2171053 73.1315789,41.3092105 73.0394737,41.4013158 L73.0394737,41.5855263 C72.1798246,42.3530702 71.2127193,42.9210526 70.1381579,43.2894737 C68.9714912,43.6885965 68.0964912,43.5964912 67.5131579,43.0131579 C67.4210526,42.9210526 67.3289474,42.875 67.2368421,42.875 C65.5789474,44.3179825 64.0745614,45.3925439 62.7236842,46.0986842 C62.3245614,46.2828947 61.9714912,46.3289474 61.6644737,46.2368421 C61.3881579,46.1447368 61.1578947,45.9912281 60.9736842,45.7763158 C60.6666667,45.5 60.5131579,45.2083333 60.5131579,44.9013158 L60.5131579,44.4868421 C58.3947368,46.3289474 56.3530702,47.879386 54.3881579,49.1381579 C54.1118421,49.2302632 53.8201754,49.2763158 53.5131579,49.2763158 C53.1447368,49.1842105 52.8530702,49.0460526 52.6381579,48.8618421 C52.3618421,48.5548246 52.2236842,48.2171053 52.2236842,47.8486842 L52.2236842,46.7894737 C51.9166667,47.004386 51.6710526,47.2039474 51.4868421,47.3881579 L51.4868421,47.5263158 C49.4605263,49.3684211 47.8640351,50.2894737 46.6973684,50.2894737 C45.3464912,50.504386 44.379386,49.9824561 43.7960526,48.7236842 C41.7390351,49.5833333 39.9890351,50.8881579 38.5460526,52.6381579 C38.2390351,52.9451754 37.9013158,53.0986842 37.5328947,53.0986842 C37.0416667,53.0986842 36.6885965,52.9912281 36.4736842,52.7763158 C36.1052632,52.5 35.9210526,52.1622807 35.9210526,51.7631579 L35.9210526,51.7631579 Z M45.5,70.0460526 C45.6842105,69.8618421 45.9298246,69.8157895 46.2368421,69.9078947 C46.5131579,70 46.7587719,70.1381579 46.9736842,70.3223684 C47.25,70.629386 47.4802632,70.9824561 47.6644737,71.3815789 C49.4144737,69.8157895 51.2719298,68.2960526 53.2368421,66.8223684 C53.5131579,66.6381579 53.8508772,66.5460526 54.25,66.5460526 C54.5263158,66.5460526 54.8179825,66.6995614 55.125,67.0065789 C55.3092105,67.1907895 55.4473684,67.4824561 55.5394737,67.8815789 C55.754386,68.9254386 55.9539474,70.0921053 56.1381579,71.3815789 C58.2565789,69.9078947 60.3903509,68.0964912 62.5394737,65.9473684 C62.8157895,65.6710526 63.1535088,65.5328947 63.5526316,65.5328947 C63.9517544,65.5328947 64.2894737,65.6710526 64.5657895,65.9473684 C64.6578947,66.0701754 64.7653509,66.2236842 64.8881579,66.4078947 C66.3311404,65.2412281 67.9276316,63.9210526 69.6776316,62.4473684 C69.9539474,62.1710526 70.2916667,62.0328947 70.6907895,62.0328947 C70.997807,62.0328947 71.2894737,62.1710526 71.5657895,62.4473684 C71.75,62.6622807 71.9035088,62.8618421 72.0263158,63.0460526 C74.3289474,61.3881579 76.5548246,60.375 78.7039474,60.0065789 C80.8530702,58.5328947 83.1864035,57.2587719 85.7039474,56.1842105 C86.0723684,56 86.4561404,56 86.8552632,56.1842105 C87.254386,56.3070175 87.5,56.5526316 87.5921053,56.9210526 C87.7763158,57.3201754 87.8223684,57.7192982 87.7302632,58.1184211 C87.5460526,58.4868421 87.254386,58.7171053 86.8552632,58.8092105 C84.4298246,59.8837719 82.2039474,61.1578947 80.1776316,62.6315789 C79.9627193,62.7236842 79.7631579,62.7697368 79.5789474,62.7697368 C77.245614,63.2609649 74.6666667,64.5197368 71.8421053,66.5460526 C71.6578947,66.7302632 71.4276316,66.8223684 71.1513158,66.8223684 C70.8442982,66.8223684 70.5526316,66.7763158 70.2763158,66.6842105 C70.0614035,66.5 69.9078947,66.3157895 69.8157895,66.1315789 C67.8815789,67.7587719 66.0855263,69.1557018 64.4276316,70.3223684 C64.1513158,70.5372807 63.8135965,70.6447368 63.4144737,70.6447368 C63.0153509,70.5526316 62.7236842,70.3991228 62.5394737,70.1842105 L62.4013158,70.0460526 C60.1600877,71.9802632 57.9188596,73.6381579 55.6776316,75.0197368 C55.4013158,75.1118421 55.1096491,75.1578947 54.8026316,75.1578947 C54.5263158,75.0657895 54.2346491,74.9122807 53.9276316,74.6973684 C53.7434211,74.5131579 53.6052632,74.2675439 53.5131579,73.9605263 C53.3289474,72.8245614 53.1754386,71.7653509 53.0526316,70.7828947 C51.1184211,72.2258772 49.3223684,73.7302632 47.6644737,75.2960526 C47.3881579,75.4802632 47.0504386,75.5723684 46.6513158,75.5723684 C46.1907895,75.5723684 45.8530702,75.4342105 45.6381579,75.1578947 C45.4539474,74.8508772 45.3157895,74.6052632 45.2236842,74.4210526 C42.5833333,77.1535088 40.3881579,77.6907895 38.6381579,76.0328947 C38.2697368,75.7258772 38.0855263,75.3881579 38.0855263,75.0197368 C38.0855263,74.620614 38.2236842,74.2675439 38.5,73.9605263 C38.7149123,73.5921053 39.0065789,73.4078947 39.375,73.4078947 C39.7741228,73.3157895 40.1732456,73.4078947 40.5723684,73.6842105 C41.3399123,74.1754386 42.7368421,73.1162281 44.7631579,70.5065789 C44.9780702,70.2916667 45.2236842,70.1381579 45.5,70.0460526 L45.5,70.0460526 Z M94.9605263,79.8552632 C94.7149123,80.254386 94.4385965,80.5153509 94.1315789,80.6381579 C90.8464912,81.6820175 87.7302632,83.3399123 84.7828947,85.6118421 C83.5548246,86.5635965 82.1118421,86.3333333 80.4539474,84.9210526 C78.0285088,86.1798246 75.4188596,87.5153509 72.625,88.9276316 C72.3179825,89.0504386 72.0263158,89.1118421 71.75,89.1118421 C71.4429825,89.0504386 71.1820175,88.9122807 70.9671053,88.6973684 L70.8289474,88.6052632 C70.3684211,89.127193 69.9692982,89.6491228 69.6315789,90.1710526 L69.6315789,90.3092105 C68.0350877,92.4583333 66.1008772,93.870614 63.8289474,94.5460526 C63.5526316,94.6688596 63.2609649,94.6535088 62.9539474,94.5 C62.6469298,94.4385965 62.4320175,94.3157895 62.3092105,94.1315789 C60.129386,95.8508772 57.75,96.8486842 55.1710526,97.125 C53.8815789,98.4144737 52.5460526,99.5964912 51.1644737,100.671053 C49.5986842,101.868421 47.1885965,102.098684 43.9342105,101.361842 C40.6491228,100.471491 40.3881579,99.0899123 43.1513158,97.2171053 C44.0109649,98.0460526 46.0372807,98.4298246 49.2302632,98.3684211 L49.3684211,98.3223684 C50.75,97.2785088 52.0241228,96.1118421 53.1907895,94.8223684 C53.4671053,94.5153509 53.8048246,94.3464912 54.2039474,94.3157895 C57.2127193,94.0701754 59.7763158,92.7346491 61.8947368,90.3092105 C62.1403509,90.002193 62.4627193,89.8333333 62.8618421,89.8026316 C63.2609649,89.7719298 63.6140351,89.8947368 63.9210526,90.1710526 C64.2280702,90.3552632 64.3969298,90.6315789 64.4276316,91 L64.4736842,91.1381579 L64.6118421,91.1381579 C65.502193,90.5855263 66.3618421,89.7412281 67.1907895,88.6052632 L67.3289474,88.6052632 C68.0964912,87.3464912 68.8333333,86.1491228 69.5394737,85.0131579 C69.6929825,84.7368421 69.9692982,84.5219298 70.3684211,84.3684211 C70.7368421,84.245614 71.1359649,84.3223684 71.5657895,84.5986842 C71.8421053,84.752193 72.0570175,85.0285088 72.2105263,85.4276316 C72.2105263,85.5197368 72.2719298,85.6578947 72.3947368,85.8421053 C75.0657895,84.4605263 77.629386,83.1403509 80.0855263,81.8815789 C80.3618421,81.7587719 80.6995614,81.7280702 81.0986842,81.7894737 C81.375,81.7894737 81.6359649,81.9122807 81.8815789,82.1578947 C82.4035088,82.8026316 82.7719298,83.1557018 82.9868421,83.2171053 C86.1798246,80.8837719 89.5877193,79.1184211 93.2105263,77.9210526 C93.4868421,77.7368421 93.8245614,77.7675439 94.2236842,78.0131579 C94.622807,78.1973684 94.8991228,78.4583333 95.0526316,78.7960526 C95.1754386,79.1030702 95.1447368,79.4561404 94.9605263,79.8552632 L94.9605263,79.8552632 Z" id="Shape"></path>
                        </g>
                    </g>
                </g>
            </g>
        </g>
    </g>
</svg>