<?xml version="1.0" encoding="UTF-8"?>
<svg width="65px" height="50px" viewBox="0 0 65 50" version="1.1" xmlns="http://www.w3.org/2000/svg" xmlns:xlink="http://www.w3.org/1999/xlink">
    <title>BPIL_logo_Stacked_White</title>
    <g id="Page-1" stroke="none" stroke-width="1" fill="none" fill-rule="evenodd">
        <g id="New-logo-in-context" transform="translate(-796.000000, -670.000000)" fill="#FFFFFF">
            <g id="BPIL_logo_Stacked_White" transform="translate(796.000000, 670.000000)">
                <path d="M40.8611372,30.2490794 C40.8611372,35.4188628 37.0289892,39.160639 31.9134296,39.160639 C26.79787,39.160639 22.965722,35.4188628 22.965722,30.2490794 C22.965722,25.079296 26.79787,21.3375271 31.9134296,21.3375271 C37.0289892,21.3375271 40.8611372,25.079296 40.8611372,30.2490794 Z M36.197491,30.2490794 C36.197491,27.4291877 34.5525632,25.2962094 31.895361,25.2962094 C29.2381588,25.2962094 27.593231,27.4292058 27.593231,30.2490794 C27.593231,33.0689711 29.2381588,35.2019495 31.895361,35.2019495 C34.5525632,35.2019495 36.2155596,33.0689711 36.197491,30.2490794 L36.197491,30.2490794 Z M41.150361,19.656444 L47.3866426,19.656444 L47.3866426,16.2038809 L45.7055596,16.2038809 L45.7055596,7.14772563 L39.469278,7.14772563 L39.469278,10.6002708 L41.150361,10.6002708 L41.150361,19.656444 Z M42.9579783,5.88238267 C44.657148,5.88238267 45.9586282,5.01472924 45.9586282,2.95404332 C45.9586282,0.893357401 44.657148,0.0257039711 42.9579783,0.0257039711 C41.2588267,0.0257039711 39.9573285,0.929512635 39.9573285,2.97211191 C39.9573285,5.01472924 41.2588267,5.88238267 42.9579783,5.88238267 L42.9579783,5.88238267 Z M33.016083,12.4440433 L33.016083,12.0463718 C33.016083,10.9437184 32.1845848,10.3652888 31.0457762,10.3652888 C29.5816065,10.3652888 28.1716606,11.0883213 28.1716606,11.0883213 L28.1716606,7.49117329 C29.4008484,7.1115704 30.6842599,6.91272563 31.9676715,6.89465704 C35.6190614,6.89465704 37.5712816,8.72034296 37.5712816,12.0282852 L37.5712816,16.2038809 L39.2523646,16.2038809 L39.2523646,19.656444 L34.4260289,19.656444 L34.046426,17.2161552 L33.7572022,17.2161552 C33.1064621,18.6803249 31.8230505,19.9094946 29.5273827,19.9094946 C27.3220939,19.9094946 25.6410108,18.2826534 25.6410108,15.9688989 C25.6410108,13.2213177 27.8824549,11.8655957 30.214278,11.8655957 C31.1723105,11.8475271 32.130343,12.0463718 33.016083,12.4440433 Z M31.6242238,14.1251264 C30.8288628,14.1251264 30.1781227,14.6131769 30.1781227,15.3362274 C30.1781227,16.059278 30.7927076,16.4569495 31.3892238,16.4569495 C32.4014982,16.4569495 33.0703069,15.4446931 33.0703069,14.5589531 C32.6364801,14.2878159 32.130343,14.1431949 31.6242238,14.1251264 Z M56.5693502,27.2122744 C56.5693502,30.8455957 54.0929061,32.8520578 50.4596029,32.8520578 L47.9831588,32.8520578 L47.9831588,35.2561733 L49.6642419,35.2561733 L49.6642419,38.7087329 L41.7468773,38.7087329 L41.7468773,35.2561733 L43.4279603,35.2561733 L43.4279603,25.0250542 L41.7468773,25.0250542 L41.7468773,21.572509 L50.4596029,21.572509 C54.0748375,21.572509 56.5693502,23.5789711 56.5693502,27.2122744 L56.5693502,27.2122744 Z M51.996065,27.2122744 C51.996065,26.2000181 51.3634116,25.0250542 49.9715343,25.0250542 L47.9831588,25.0250542 L47.9831588,29.381426 L49.9715343,29.381426 C51.3634116,29.3994946 51.996065,28.2245487 51.996065,27.2122744 L51.996065,27.2122744 Z M62.0283574,16.2038809 L62.0283574,11.6486823 C62.0283574,7.70808664 59.6784477,6.89465704 57.7081408,6.89465704 C55.3582491,6.89465704 53.6771661,8.52151625 52.9721841,9.58799639 L52.6829603,9.58799639 L52.3033574,7.14772563 L47.6577798,7.14772563 L47.6577798,10.6002708 L49.3388628,10.6002708 L49.3388628,19.6745126 L55.5751444,19.6745126 L55.5751444,16.2219675 L53.8759928,16.2219675 L53.8759928,13.2032491 C53.8759928,12.0644404 54.6894224,11.1244765 55.9005235,11.1244765 C56.8043321,11.1244765 57.4731588,11.5763899 57.4731588,12.64287 L57.4731588,19.656444 L63.7094404,19.656444 L63.7094404,16.2038809 L62.0283574,16.2038809 Z M15.1929603,38.7087329 L7.27559928,38.7087329 L7.27559928,35.2561733 L8.95668412,35.2561733 L8.95668412,25.0250542 L7.27559928,25.0250542 L7.27559928,21.572509 L15.9883213,21.572509 C19.6216245,21.572509 22.0980686,23.5789711 22.0980686,27.1942058 C22.0980686,30.8094404 19.6216245,32.8339711 15.9883213,32.8339711 L13.5118773,32.8339711 L13.5118773,35.2561733 L15.1929603,35.2561733 L15.1929603,38.7087329 Z M13.5118773,29.3994946 L15.5002527,29.3994946 C16.9101986,29.3994946 17.5248014,28.2426173 17.5248014,27.2122744 C17.5248014,26.1819314 16.89213,25.0250542 15.5002527,25.0250542 L13.5118773,25.0250542 L13.5118773,29.3994946 Z M23.996065,16.2038809 L22.3149819,16.2038809 L22.3149819,13.112852 C22.3149819,11.7209928 23.200722,11.1244765 24.3575993,11.1244765 C24.9540975,11.1425632 25.5506137,11.2148556 26.14713,11.3413899 L26.14713,6.89465704 C23.7972202,6.89465704 22.1161372,8.52151625 21.4111733,9.58799639 L21.1219495,9.58799639 L20.7423466,7.14772563 L16.096769,7.14772563 L16.096769,10.6002708 L17.77787,10.6002708 L17.77787,16.2038809 L16.096769,16.2038809 L16.096769,19.656444 L24.0141516,19.656444 L23.996065,16.2038809 Z M9.4808935,19.656444 L0.00897472924,19.656444 L0.00897472924,16.2038809 L1.69005957,16.2038809 L1.69005957,5.99084838 L0.00897472924,5.99084838 L0.00897472924,2.5382852 L9.06514079,2.5382852 C12.6261552,2.5382852 14.0541697,4.77974729 14.0541697,6.78619134 C14.0722383,8.19613718 13.3491877,9.51570397 12.1380866,10.2568231 L12.1380866,10.5460469 C13.7830325,11.3052347 14.831444,12.9682491 14.8133755,14.7758664 C14.831444,17.0896209 13.4214982,19.656444 9.4808935,19.656444 L9.4808935,19.656444 Z M6.24525632,9.58799639 L8.07095126,9.58799639 C9.17359747,9.58799639 9.73395848,8.59380866 9.73395848,7.76231047 C9.73395848,6.93081227 9.17359747,5.99084838 8.07095126,5.99084838 L6.24525632,5.99084838 L6.24525632,9.58799639 Z M8.3963231,16.2038809 C9.71588448,16.2038809 10.2762455,15.1012455 10.2762455,14.1612816 C10.2762455,13.2213177 9.71588448,12.1728881 8.3963231,12.1728881 L6.24525632,12.1728881 L6.24525632,16.2038809 C6.24525632,16.2038809 8.3963231,16.2038809 8.3963231,16.2038809 Z" id="Fill-1"></path>
                <polygon id="Fill-3" points="21.7546209 43.8242906 19.8746931 49.807509 17.7959386 49.807509 19.1877978 45.378843 16.6390614 45.378843 16.6390614 42.5951137 18.5370578 42.5951137 18.5370578 43.8242906"></polygon>
                <path d="M26.0748195,49.807509 L24.3937365,46.8249386 C24.2491336,46.8430162 24.0502888,46.8791643 24.0502888,47.276843 L24.0502888,49.807509 L22.1884477,49.807509 L22.1884477,47.656444 C22.1884477,46.7164801 22.5861191,45.8849801 23.7249278,45.7403682 L22.4776715,43.8423682 L24.4660469,43.8423682 L26.0025271,46.4634152 C26.2736643,46.4453375 26.4182852,46.3911101 26.4182852,45.8488249 L26.4182852,43.8423682 L28.3343502,43.8423682 L28.3343502,45.7222906 C28.3343502,46.8972419 27.7197653,47.4033736 26.707491,47.5118303 L28.1535921,49.8255794 L26.0748195,49.807509 L26.0748195,49.807509 Z" id="Fill-4"></path>
                <path d="M31.3169134,43.8242906 C32.9437726,43.8242906 33.341444,44.8365578 33.341444,46.3730343 L33.341444,49.807509 L31.2807762,49.807509 L31.2988448,46.806861 C31.2988448,45.92113 31.1723105,45.378843 30.3227256,45.378843 L29.0574007,45.378843 L29.0574007,43.8242906 L31.3169134,43.8242906 Z" id="Fill-5"></path>
                <path d="M41.7649458,43.8242906 L41.7649458,46.7887834 C41.7649458,48.8494675 40.7526895,49.807509 38.8546931,49.807509 L34.8598556,49.807509 L34.2994946,43.8242906 L36.2155596,43.8242906 L36.613231,48.2891101 L38.2943321,48.2891101 C39.2704332,48.2891101 39.9211733,48.2168069 39.9211733,46.9153195 L39.9211733,43.8242906 L41.7649458,43.8242906 Z M39.0716065,47.3129982 L37.318213,47.3129982 L37.318213,43.824296 L39.0716065,43.824296 L39.0716065,47.3129982 Z" id="Fill-6"></path>
                <polygon id="Fill-7" points="45.0186643 43.8242906 45.0186643 47.3672238 42.9579783 47.3672238 42.9579783 43.8242906"></polygon>
            </g>
        </g>
    </g>
</svg>