
<svg xmlns="http://www.w3.org/2000/svg" version="1.1" xmlns:xlink="http://www.w3.org/1999/xlink" preserveAspectRatio="none" x="0px" y="0px" width="40px" height="40px" viewBox="0 0 40 40">
<defs>
<g id="Layer0_0_FILL">
<path fill="#FFFFFF" stroke="none" d="
M 26.15 17.55
Q 26.15 14.35 23.85 12.1 21.65 9.85 18.4 9.85 15.2 9.85 13 12.1 10.7 14.35 10.7 17.55 10.7 20.75 13 23 15.2 25.25 18.4 25.25 20.9 25.25 22.8 23.9
L 28.55 29.5 30.6 27.2 24.95 21.75 24.9 21.75
Q 26.15 19.9 26.15 17.55
M 23.1 17.55
Q 23.1 19.5 21.75 20.85 20.35 22.25 18.4 22.25 16.5 22.25 15.1 20.85 13.75 19.5 13.8 17.55 13.75 15.6 15.1 14.25 16.5 12.9 18.4 12.9 20.35 12.9 21.75 14.25 23.1 15.6 23.1 17.55 Z"/>
</g>
</defs>

<g transform="matrix( 1, 0, 0, 1, -0.65,0.35) ">
<use xlink:href="#Layer0_0_FILL"/>
</g>
</svg>
