<?xml version="1.0" encoding="UTF-8" standalone="no"?>
<svg width="127px" height="206px" viewBox="0 0 127 206" version="1.1" xmlns="http://www.w3.org/2000/svg" xmlns:xlink="http://www.w3.org/1999/xlink" xmlns:sketch="http://www.bohemiancoding.com/sketch/ns">
    <!-- Generator: Sketch 3.3.3 (12081) - http://www.bohemiancoding.com/sketch -->
    <title>Group</title>
    <desc>Created with Sketch.</desc>
    <defs></defs>
    <g id="Page-2" stroke="none" stroke-width="1" fill="none" fill-rule="evenodd" sketch:type="MSPage">
        <g id="Quiz-review-mode-Non-Insensitive-Feedback" sketch:type="MSArtboardGroup" transform="translate(-821.000000, -584.000000)">
            <g id="Group-29-Copy-+-Group-+-CORRECT!-Copy" sketch:type="MSLayerGroup" transform="translate(712.000000, 479.000000)">
                <g id="Group" transform="translate(107.386364, 105.397727)" sketch:type="MSShapeGroup">
                    <path d="M120.213068,67.7544981 L115.796638,67.0004735 C112.765672,22.9969094 96.1053189,0.807041977 65.8155777,0.430871212 C34.2363084,-0.87689024 16.8219302,21.4925069 13.5724432,67.5390625 C13.5351347,68.0703581 13.4992287,68.6089471 13.4647254,69.1548295 L6.89393939,70.1242898 C1.29261364,92.3141572 0.143623737,114.683554 3.4469697,137.232481 L10.7717803,139.063684 L10.7717803,139.279119 L10.5563447,139.279119 L13.0338542,179.134706 C13.5427086,182.581676 14.404451,184.771938 15.6190814,185.705492 C16.8376391,186.710859 17.6634756,187.321259 18.0965909,187.536695 C55.5574205,211.881199 88.4113504,210.732209 116.658381,184.089725 L117.735559,182.581676 L118.381866,181.073627 L119.782197,140.571733 L126.460701,136.263021 C129.422099,111.03798 127.339555,88.2018057 120.213068,67.7544981 L120.213068,67.7544981 Z M69.2625473,4.52414773 C71.2452282,4.55865109 73.1482427,4.70227482 74.9715909,4.95501894 C97.0590703,8.33157934 109.3389,29.2288331 111.81108,67.6467803 C111.891307,68.4005244 112.034931,69.7649499 112.241951,71.7400568 L112.457386,73.7866951 C114.460264,95.1333341 115.573348,116.461459 115.796638,137.77107 L115.68892,137.878788 C116.253036,161.006698 115.822165,175.620413 114.396307,181.719934 C97.7104264,198.43078 79.5420236,205.324719 59.8910985,202.401752 L59.8910985,202.401752 C51.1805432,201.072952 42.1681537,197.805512 32.8539299,192.599432 C28.0251428,189.918829 23.1060298,186.687295 18.0965909,182.90483 L16.9116951,182.043087 L16.5885417,179.134706 C15.4695669,167.013368 14.7873541,154.877162 14.5419034,142.726089 C14.4869224,140.586039 14.4510165,138.431683 14.4341856,136.263021 L14.3264678,136.263021 C14.3315171,115.04037 15.0496358,93.8199623 16.4808239,72.6017992 L16.6962595,72.6017992 C19.5622824,26.2719233 35.648141,3.47165503 64.9538352,4.20099432 C66.3726807,4.27364773 67.808918,4.38136554 69.2625473,4.52414773 L69.2625473,4.52414773 Z M115.042614,78.203125 L114.180871,70.7705966 L118.16643,71.09375 C118.751865,73.0898955 119.290454,75.1006279 119.782197,77.125947 C121.757584,85.1772917 122.978386,93.6510922 123.444602,102.547348 C124.048832,112.471973 124.012926,122.776976 123.336884,133.462358 L118.16643,136.263021 L116.873816,103.94768 L115.042614,78.203125 L115.042614,78.203125 Z M7.109375,83.1581439 C7.70603064,79.8769587 8.3882434,76.5736127 9.15601326,73.2481061 L14.21875,72.8172348 C14.0453917,75.8052818 13.8299561,78.7495684 13.5724432,81.6500947 C13.5023144,82.499775 13.4305025,83.3256115 13.3570076,84.1276042 L12.2798295,103.94768 C11.953871,114.006671 12.0974947,125.137511 12.7107008,137.340199 L12.602983,135.83215 L12.4952652,135.83215 L5.60132576,134.108665 C4.44728659,123.708006 4.19594505,113.295285 4.84730114,102.870502 C5.25769475,96.328609 6.01171937,89.757823 7.109375,83.1581439 L7.109375,83.1581439 Z M76.6950758,77.8799716 C74.3000377,83.7685448 73.3664834,90.9138258 73.8944129,99.3158144 C74.4198177,107.717803 76.2510203,114.89899 79.3880208,120.859375 C81.5990409,124.791916 83.9329267,127.41305 86.389678,128.722775 C86.5327407,128.799916 86.6763645,128.871728 86.8205492,128.93821 L86.8205492,128.93821 C87.9664535,129.440893 89.1154434,129.692235 90.2675189,129.692235 C94.3010457,129.692235 97.5325798,126.747948 99.9621212,120.859375 C102.390821,114.89899 103.324375,107.717803 102.762784,99.3158144 C102.271041,90.9138258 100.439838,83.7685448 97.2691761,77.8799716 C95.7451375,75.0212421 94.1293705,72.8309801 92.421875,71.3091856 C90.538216,69.7293245 88.5274837,68.9393939 86.389678,68.9393939 C82.4717235,68.9393939 79.2401894,71.9195865 76.6950758,77.8799716 L76.6950758,77.8799716 Z M77.0182292,99.53125 C76.5068501,91.9090934 77.1531569,85.4101193 78.9571496,80.0343277 C80.8444553,74.6534868 83.3219648,71.9605417 86.389678,71.9554924 C89.5923191,71.9605417 92.4647938,74.6534868 95.0071023,80.0343277 C97.6027086,85.4101193 99.1466638,91.9090934 99.6389678,99.53125 C100.201681,107.156773 99.5553743,113.655747 97.7000473,119.028172 C95.9285944,124.412099 93.4510849,127.105044 90.2675189,127.107008 C87.1984031,127.105044 84.3259284,124.412099 81.6500947,119.028172 C79.1234951,113.655747 77.5795399,107.156773 77.0182292,99.53125 L77.0182292,99.53125 Z M31.2381629,78.9571496 C27.8276601,84.9175347 25.6733041,92.0987216 24.7750947,100.50071 C23.94477,108.902699 24.6269827,116.04798 26.821733,121.936553 C28.1022844,125.310308 29.6462396,127.716006 31.4535985,129.153646 C32.8634674,130.302636 34.4074226,130.877131 36.085464,130.877131 C40.1649953,130.877131 43.8992125,127.896938 47.2881155,121.936553 C50.7308775,116.04798 52.8852336,108.902699 53.7511837,100.50071 C54.6137677,92.0987216 53.9315549,84.9175347 51.7045455,78.9571496 C50.9407028,76.8005494 50.0430544,75.0411587 49.0116004,73.6789773 C47.1840444,71.3091856 44.9937824,70.1242898 42.4408144,70.1242898 C38.4754528,70.1242898 34.7412356,73.0685764 31.2381629,78.9571496 L31.2381629,78.9571496 Z M27.898911,100.50071 C28.7755207,92.8751874 30.6067234,86.3403074 33.3925189,80.8960701 C36.2506874,75.5836749 39.23088,72.9266357 42.3330966,72.9249527 C45.5015148,72.9266357 47.8713064,75.5836749 49.4424716,80.8960701 C51.0565555,86.3403074 51.4156149,92.8751874 50.5196496,100.50071 C49.7109246,108.122586 47.9156278,114.585655 45.1337595,119.889915 C42.3361823,125.342568 39.3559897,128.071419 36.1931818,128.076468 C33.1035884,128.071419 30.7337967,125.342568 29.0838068,119.889915 C27.4843096,114.585655 27.0893444,108.122586 27.898911,100.50071 L27.898911,100.50071 Z" id="Shape" fill="#000000"></path>
                    <path d="M12.2798295,103.94768 L4.84730114,102.870502 C4.19594505,113.295285 4.44728659,123.708006 5.60132576,134.108665 L12.4952652,135.83215 L12.602983,135.83215 L12.7107008,137.340199 C12.0974947,125.137511 11.953871,114.006671 12.2798295,103.94768 L12.2798295,103.94768 Z M123.444602,102.547348 L116.873816,103.94768 L118.16643,136.263021 L123.336884,133.462358 C124.012926,122.776976 124.048832,112.471973 123.444602,102.547348 L123.444602,102.547348 Z" id="Shape" fill="#CC9900"></path>
                    <path d="M13.3570076,84.1276042 C11.0191946,84.4218645 8.93665044,84.0987111 7.109375,83.1581439 C6.01171937,89.757823 5.25769475,96.328609 4.84730114,102.870502 L12.2798295,103.94768 L13.3570076,84.1276042 L13.3570076,84.1276042 Z M119.782197,77.125947 C117.999523,77.6000175 116.419662,77.9590769 115.042614,78.203125 L116.873816,103.94768 L123.444602,102.547348 C122.978386,93.6510922 121.757584,85.1772917 119.782197,77.125947 L119.782197,77.125947 Z" id="Shape" fill="#FFCC00"></path>
                    <path d="M9.15601326,73.2481061 C8.3882434,76.5736127 7.70603064,79.8769587 7.109375,83.1581439 C8.93665044,84.0987111 11.0191946,84.4218645 13.3570076,84.1276042 C13.4305025,83.3256115 13.5023144,82.499775 13.5724432,81.6500947 C13.8299561,78.7495684 14.0453917,75.8052818 14.21875,72.8172348 L9.15601326,73.2481061 L9.15601326,73.2481061 Z M114.180871,70.7705966 L115.042614,78.203125 C116.419662,77.9590769 117.999523,77.6000175 119.782197,77.125947 C119.290454,75.1006279 118.751865,73.0898955 118.16643,71.09375 L114.180871,70.7705966 L114.180871,70.7705966 Z" id="Shape" fill="#FFFFCC"></path>
                    <path d="M59.4602273,7.109375 C61.6067289,5.91129496 63.4379316,4.94183473 64.9538352,4.20099432 C35.648141,3.47165503 19.5622824,26.2719233 16.6962595,72.6017992 L16.4808239,72.6017992 C15.0496358,93.8199623 14.3315171,115.04037 14.3264678,136.263021 L14.4341856,136.263021 C14.4510165,138.431683 14.4869224,140.586039 14.5419034,142.726089 C17.030353,131.062271 19.6514862,113.611987 22.405303,90.3752367 C25.820294,62.340837 31.5652435,42.1617019 39.6401515,29.8378314 C47.7879935,17.5192908 54.3946854,9.94313866 59.4602273,7.109375 L59.4602273,7.109375 Z" id="Shape" fill="#FF9900"></path>
                    <path d="M78.9571496,80.0343277 C77.1531569,85.4101193 76.5068501,91.9090934 77.0182292,99.53125 C77.5795399,107.156773 79.1234951,113.655747 81.6500947,119.028172 C84.3259284,124.412099 87.1984031,127.105044 90.2675189,127.107008 C93.4510849,127.105044 95.9285944,124.412099 97.7000473,119.028172 C99.5553743,113.655747 100.201681,107.156773 99.6389678,99.53125 C99.1466638,91.9090934 97.6027086,85.4101193 95.0071023,80.0343277 C92.4647938,74.6534868 89.5923191,71.9605417 86.389678,71.9554924 C83.3219648,71.9605417 80.8444553,74.6534868 78.9571496,80.0343277 L78.9571496,80.0343277 Z M33.3925189,80.8960701 C30.6067234,86.3403074 28.7755207,92.8751874 27.898911,100.50071 C27.0893444,108.122586 27.4843096,114.585655 29.0838068,119.889915 C30.7337967,125.342568 33.1035884,128.071419 36.1931818,128.076468 C39.3559897,128.071419 42.3361823,125.342568 45.1337595,119.889915 C47.9156278,114.585655 49.7109246,108.122586 50.5196496,100.50071 C51.4156149,92.8751874 51.0565555,86.3403074 49.4424716,80.8960701 C47.8713064,75.5836749 45.5015148,72.9266357 42.3330966,72.9249527 C39.23088,72.9266357 36.2506874,75.5836749 33.3925189,80.8960701 L33.3925189,80.8960701 Z" id="Shape" fill="#FFFFFF"></path>
                    <path d="M96.8383049,73.6789773 C95.6388223,72.7246649 94.705268,72.114264 94.037642,71.8477746 C93.5032608,71.6752578 92.9646717,71.4957282 92.421875,71.3091856 C94.1293705,72.8309801 95.7451375,75.0212421 97.2691761,77.8799716 C100.439838,83.7685448 102.271041,90.9138258 102.762784,99.3158144 C103.324375,107.717803 102.390821,114.89899 99.9621212,120.859375 C97.5325798,126.747948 94.3010457,129.692235 90.2675189,129.692235 C89.1154434,129.692235 87.9664535,129.440893 86.8205492,128.93821 L86.8205492,128.93821 C93.2799707,132.279987 98.05546,131.202809 101.147017,125.706676 C100.606745,131.758509 99.8886263,137.7548 98.992661,143.695549 C97.6767646,152.999394 95.8455619,161.042323 93.499053,167.824337 L93.7144886,167.17803 L92.960464,169.547822 C88.4119115,181.403793 82.9901154,189.877594 76.6950758,194.969223 C70.3952674,200.129579 64.7939416,202.607089 59.8910985,202.401752 C79.5420236,205.324719 97.7104264,198.43078 114.396307,181.719934 C115.822165,175.620413 116.253036,161.006698 115.68892,137.878788 L115.796638,137.77107 C115.573348,116.461459 114.460264,95.1333341 112.457386,73.7866951 L112.241951,71.7400568 C112.034931,69.7649499 111.891307,68.4005244 111.81108,67.6467803 C109.3389,29.2288331 97.0590703,8.33157934 74.9715909,4.95501894 C90.889982,17.3285405 99.7946537,36.7177451 101.685606,63.1226326 C102.208767,70.4415524 102.53192,77.6945511 102.655066,84.8816288 C101.40453,81.283742 100.43507,78.7344206 99.7466856,77.2336648 C99.0700832,75.8106116 98.1006229,74.6257158 96.8383049,73.6789773 L96.8383049,73.6789773 Z M50.7350852,74.6484375 C50.1605903,74.2893782 49.5860953,73.9662247 49.0116004,73.6789773 C50.0430544,75.0411587 50.9407028,76.8005494 51.7045455,78.9571496 C53.9315549,84.9175347 54.6137677,92.0987216 53.7511837,100.50071 C52.8852336,108.902699 50.7308775,116.04798 47.2881155,121.936553 C43.8992125,127.896938 40.1649953,130.877131 36.085464,130.877131 C34.4074226,130.877131 32.8634674,130.302636 31.4535985,129.153646 L31.3458807,129.369081 C39.8771868,136.13202 46.842938,132.290085 52.2431345,117.843277 C57.7182284,103.400114 58.1850056,90.1508247 53.6434659,78.0954072 C53.2844066,77.1618529 52.8535354,76.4437342 52.3508523,75.9410511 C51.8481692,75.4383681 51.3095802,75.0074968 50.7350852,74.6484375 L50.7350852,74.6484375 Z" id="Shape" fill="#993300"></path>
                    <path d="M74.9715909,4.95501894 C73.1482427,4.70227482 71.2452282,4.55865109 69.2625473,4.52414773 C67.808918,4.38136554 66.3726807,4.27364773 64.9538352,4.20099432 C63.4379316,4.94183473 61.6067289,5.91129496 59.4602273,7.109375 C54.3946854,9.94313866 47.7879935,17.5192908 39.6401515,29.8378314 C31.5652435,42.1617019 25.820294,62.340837 22.405303,90.3752367 C19.6514862,113.611987 17.030353,131.062271 14.5419034,142.726089 C14.7873541,154.877162 15.4695669,167.013368 16.5885417,179.134706 L16.9116951,182.043087 L18.0965909,182.90483 C23.1060298,186.687295 28.0251428,189.918829 32.8539299,192.599432 C42.1681537,197.805512 51.1805432,201.072952 59.8910985,202.401752 L59.8910985,202.401752 C64.7939416,202.607089 70.3952674,200.129579 76.6950758,194.969223 C82.9901154,189.877594 88.4119115,181.403793 92.960464,169.547822 L93.7144886,167.17803 L93.499053,167.824337 C95.8455619,161.042323 97.6767646,152.999394 98.992661,143.695549 C99.8886263,137.7548 100.606745,131.758509 101.147017,125.706676 C98.05546,131.202809 93.2799707,132.279987 86.8205492,128.93821 C86.6763645,128.871728 86.5327407,128.799916 86.389678,128.722775 C83.9329267,127.41305 81.5990409,124.791916 79.3880208,120.859375 C76.2510203,114.89899 74.4198177,107.717803 73.8944129,99.3158144 C73.3664834,90.9138258 74.3000377,83.7685448 76.6950758,77.8799716 C79.2401894,71.9195865 82.4717235,68.9393939 86.389678,68.9393939 C88.5274837,68.9393939 90.538216,69.7293245 92.421875,71.3091856 C92.9646717,71.4957282 93.5032608,71.6752578 94.037642,71.8477746 C94.705268,72.114264 95.6388223,72.7246649 96.8383049,73.6789773 C98.1006229,74.6257158 99.0700832,75.8106116 99.7466856,77.2336648 C100.43507,78.7344206 101.40453,81.283742 102.655066,84.8816288 C102.53192,77.6945511 102.208767,70.4415524 101.685606,63.1226326 C99.7946537,36.7177451 90.889982,17.3285405 74.9715909,4.95501894 L74.9715909,4.95501894 Z M49.0116004,73.6789773 C49.5860953,73.9662247 50.1605903,74.2893782 50.7350852,74.6484375 C51.3095802,75.0074968 51.8481692,75.4383681 52.3508523,75.9410511 C52.8535354,76.4437342 53.2844066,77.1618529 53.6434659,78.0954072 C58.1850056,90.1508247 57.7182284,103.400114 52.2431345,117.843277 C46.842938,132.290085 39.8771868,136.13202 31.3458807,129.369081 L31.4535985,129.153646 C29.6462396,127.716006 28.1022844,125.310308 26.821733,121.936553 C24.6269827,116.04798 23.94477,108.902699 24.7750947,100.50071 C25.6733041,92.0987216 27.8276601,84.9175347 31.2381629,78.9571496 C34.7412356,73.0685764 38.4754528,70.1242898 42.4408144,70.1242898 C44.9937824,70.1242898 47.1840444,71.3091856 49.0116004,73.6789773 L49.0116004,73.6789773 Z" id="Shape" fill="#CC6600"></path>
                    <g transform="translate(32.099905, 92.745028)" id="MOBY_Eye_0_Layer0_0_FILL-link" fill="#000000">
                        <g transform="translate(53.320312, 1.723485)">
                            <g>
                                <g>
                                    <g id="MOBY_Eye_0_Layer0_0_FILL">
                                        <path d="M8.07883523,6.35535038 C8.07687162,4.89751334 7.68190634,3.64080564 6.89393939,2.58522727 C6.17049092,1.58687399 5.27284256,1.08419091 4.20099432,1.07717803 C3.21891091,1.08419091 2.35716849,1.58687399 1.61576705,2.58522727 C0.863425515,3.64080564 0.468460237,4.89751334 0.430871212,6.35535038 C0.468460237,7.90267174 0.863425515,9.19528537 1.61576705,10.2331913 C2.35716849,11.249217 3.21891091,11.7519001 4.20099432,11.7412405 C5.27284256,11.7519001 6.17049092,11.249217 6.89393939,10.2331913 C7.68190634,9.19528537 8.07687162,7.90267174 8.07883523,6.35535038 L8.07883523,6.35535038 Z" id="Shape"></path>
                                    </g>
                                </g>
                            </g>
                        </g>
                        <g transform="translate(1.615767, 1.723485)">
                            <g>
                                <g>
                                    <g id="MOBY_Eye_0_Layer0_0_FILL">
                                        <path d="M8.07883523,6.35535038 C8.07687162,4.89751334 7.68190634,3.64080564 6.89393939,2.58522727 C6.17049092,1.58687399 5.27284256,1.08419091 4.20099432,1.07717803 C3.21891091,1.08419091 2.35716849,1.58687399 1.61576705,2.58522727 C0.863425515,3.64080564 0.468460237,4.89751334 0.430871212,6.35535038 C0.468460237,7.90267174 0.863425515,9.19528537 1.61576705,10.2331913 C2.35716849,11.249217 3.21891091,11.7519001 4.20099432,11.7412405 C5.27284256,11.7519001 6.17049092,11.249217 6.89393939,10.2331913 C7.68190634,9.19528537 8.07687162,7.90267174 8.07883523,6.35535038 L8.07883523,6.35535038 Z" id="Shape"></path>
                                    </g>
                                </g>
                            </g>
                        </g>
                    </g>
                    <g transform="translate(22.075765, 162.312886)" id="MOBY_MOBY__PART_mouth_printer_1_Layer1_0_FILL-link" fill="#000000">
                        <g>
                            <g id="MOBY_MOBY__PART_mouth_printer_1_Layer1_0_FILL">
                                <path d="M43.7043319,4.3019924 L21.3144169,4.20421985 L21.7055071,7.72403182 C35.5892099,7.85439522 43.0851057,7.85439522 44.1931947,7.72403182 L43.7043319,4.3019924 L43.7043319,4.3019924 Z M19.8478286,4.20421985 L1.36881576,2.63985898 L1.27104321,6.35521605 C8.33511028,7.23949752 14.5273721,7.66317859 19.8478286,7.62625926 L19.8478286,4.20421985 L19.8478286,4.20421985 Z M65.3120665,6.94185138 L71.8628277,6.74630627 L72.3516904,3.03094919 L49.2773675,4.00867474 L48.8862773,7.52848671 C53.2534514,6.94185138 58.7287145,6.74630627 65.3120665,6.94185138 L65.3120665,6.94185138 Z M74.1115964,5.96412583 C75.0526573,6.03694602 79.713149,5.61326495 88.0930717,4.69308262 L88.1908443,0.586635328 L74.1115964,2.44431387 L74.1115964,5.96412583 L74.1115964,5.96412583 Z" id="Shape"></path>
                            </g>
                        </g>
                    </g>
                </g>
            </g>
        </g>
    </g>
</svg>