<?xml version="1.0" encoding="UTF-8"?>
<svg width="200px" height="200px" viewBox="0 0 200 200" version="1.1" xmlns="http://www.w3.org/2000/svg" xmlns:xlink="http://www.w3.org/1999/xlink">
    <!-- Generator: Sketch 47 (45396) - http://www.bohemiancoding.com/sketch -->
    <title>social_studies_il_white</title>
    <desc>Created with Sketch.</desc>
    <defs></defs>
    <g id="Page-1" stroke="none" stroke-width="1" fill="none" fill-rule="evenodd">
        <g id="social_studies_il_white" fill-rule="nonzero" fill="#FFFFFF">
            <g id="bp_subject_icon_social-studies_il" transform="translate(30.000000, 35.000000)">
                <path d="M140,74.7274682 C139.846986,68.8008387 137.743042,63.9123131 133.688168,60.0618913 C129.633294,56.1737204 124.583828,54.2485095 118.53977,54.2862587 C112.801741,54.6260018 108.07743,56.7777081 104.366838,60.7413775 C100.617992,64.7050469 98.6861892,69.5369487 98.5714286,75.2370828 L98.5714286,108.475282 C98.8774568,111.570719 100.598866,113.269435 103.735655,113.571429 L134.835774,113.571429 C138.010817,113.269435 139.732225,111.570719 140,108.475282 L140,74.7274682 Z" id="Shape"></path>
                <path d="M129.89547,19.3902439 C127.081211,16.575985 123.554007,15.1125704 119.313857,15 C115.036183,15.1125704 111.490217,16.575985 108.675958,19.3902439 C105.861699,22.2045028 104.398285,25.7317073 104.285714,29.9718574 C104.398285,34.249531 105.861699,37.7954972 108.675958,40.6097561 C111.490217,43.424015 115.036183,44.8874296 119.313857,45 C123.554007,44.8874296 127.081211,43.424015 129.89547,40.6097561 C132.709729,37.7579737 134.173144,34.2120075 134.285714,29.9718574 C134.173144,25.7317073 132.709729,22.2045028 129.89547,19.3902439 Z" id="Shape"></path>
                <path d="M41.4285714,74.7274682 C41.2755573,68.8008387 39.1716132,63.9123131 35.1167392,60.0618913 C31.0618652,56.1737204 26.0123994,54.2485095 19.9683419,54.2862587 C14.2303126,54.6260018 9.50600185,56.7777081 5.79540958,60.7413775 C2.04656378,64.7050469 0.114760586,69.5369487 0,75.2370828 L0,108.475282 C0.306028228,111.570719 2.02743701,113.269435 5.16422636,113.571429 L36.2643451,113.571429 C39.4393879,113.269435 41.1607967,111.570719 41.4285714,108.475282 L41.4285714,74.7274682 Z" id="Shape"></path>
                <path d="M31.3240418,19.3902439 C28.5097829,16.575985 24.9825784,15.1125704 20.7424283,15 C16.4647548,15.1125704 12.9187885,16.575985 10.1045296,19.3902439 C7.2902707,22.2045028 5.82685607,25.7317073 5.71428571,29.9718574 C5.82685607,34.249531 7.2902707,37.7954972 10.1045296,40.6097561 C12.9187885,43.424015 16.4647548,44.8874296 20.7424283,45 C24.9825784,44.8874296 28.5097829,43.424015 31.3240418,40.6097561 C34.1383007,37.7579737 35.6017154,34.2120075 35.7142857,29.9718574 C35.6017154,25.7317073 34.1383007,22.2045028 31.3240418,19.3902439 Z" id="Shape"></path>
                <path d="M90.7142857,59.1163084 C90.5612716,53.1597813 88.4573275,48.2276252 84.4024535,44.31984 C80.3475795,40.4499944 75.2981137,38.5340414 69.2540562,38.5719811 C63.5160269,38.9513777 58.7917161,41.1139385 55.0811239,45.0596634 C51.3322781,49.043328 49.4004749,53.8996048 49.2857143,59.6284938 L49.2857143,124.16386 C49.5917425,127.274912 51.3131513,128.982197 54.4499406,129.285714 L85.5500594,129.285714 C88.7251022,128.982197 90.446511,127.274912 90.7142857,124.16386 L90.7142857,59.1163084 Z" id="Shape"></path>
                <path d="M79.8954704,4.3902439 C77.0812115,1.57598499 73.554007,0.112570356 69.3138569,0 C65.0361833,0.112570356 61.4902171,1.57598499 58.6759582,4.3902439 C55.8616993,7.20450281 54.3982846,10.7317073 54.2857143,14.9718574 C54.3982846,19.249531 55.8616993,22.7954972 58.6759582,25.6097561 C61.4902171,28.424015 65.0361833,29.8874296 69.3138569,30 C73.554007,29.8874296 77.0812115,28.424015 79.8954704,25.6097561 C82.7097293,22.7579737 84.1731439,19.2120075 84.2857143,14.9718574 C84.1731439,10.7317073 82.7097293,7.20450281 79.8954704,4.3902439 Z" id="Shape"></path>
            </g>
        </g>
    </g>
</svg>